<?xml version="1.0" encoding="UTF-8" standalone="no"?>
<svg width="885px" height="66px" viewBox="0 0 866 66" version="1.1" xmlns="http://www.w3.org/2000/svg" xmlns:xlink="http://www.w3.org/1999/xlink">
    <!-- Generator: Sketch 47.1 (45422) - http://www.bohemiancoding.com/sketch -->
    <title>Page 1</title>
    <desc>Created with Sketch.</desc>
    <defs>
        <polygon id="path-1" points="3.06387485e-15 4.69145455 3.06387485e-15 0.155090909 78.5473061 0.155090909 78.5473061 4.69145455 0 4.69145455"></polygon>
        <polygon id="path-3" points="17.963027 0.27835 17.963027 4.93585 0.390016216 4.93585 0.390016216 0.27835 17.963027 0.27835"></polygon>
        <polygon id="path-5" points="17.963027 0.27845 17.963027 4.80395 0.4266 4.80395 0.4266 0.27845 17.963027 0.27845"></polygon>
        <polygon id="path-7" points="0 66 866 66 866 0 0 0"></polygon>
    </defs>
    <g id="Page-1" stroke="none" stroke-width="1" fill="none" fill-rule="evenodd" opacity="0.963541667">
        <g id="3_WAITING-SCREEN" transform="translate(-69.000000, -667.000000)">
            <g id="Page-1" transform="translate(69.000000, 667.000000)">
                <g id="Group-3" transform="translate(0.000000, 54.000000)">
                    <mask id="mask-2" fill="white">
                        <use xlink:href="#path-1"></use>
                    </mask>
                    <g id="Clip-2"></g>
                    <path d="M2.04274848,4.69145455 L76.5043182,4.69145455 C77.6328212,4.69145455 78.5473061,3.82327273 78.5473061,2.75190909 L78.5473061,2.09372727 C78.5473061,1.02327273 77.6328212,0.155090909 76.5043182,0.155090909 L2.04274848,0.155090909 C0.914724242,0.155090909 -0.000239393939,1.02327273 -0.000239393939,2.09372727 L-0.000239393939,2.75190909 C-0.000239393939,3.82327273 0.914724242,4.69145455 2.04274848,4.69145455" id="Fill-1" fill="#1FA7DF" mask="url(#mask-2)"></path>
                </g>
                <path d="M66.8422856,22 C67.5880963,22 68.2673518,22.4251677 68.5883832,23.0925256 L75.8115898,38.1083216 C75.9358916,38.3670138 76,38.6485175 76,38.93536 L76,55 L47,55 L47,38.5004854 L47,23.9190787 C47,22.859557 47.8661975,22 48.9345078,22 L66.8422856,22 Z" id="Fill-4" fill="#1FA7DF"></path>
                <path d="M73.5580081,42.2648694 C73.5580081,41.9780268 73.4938997,41.6965231 73.3695979,41.4383163 L66.1468806,26.4230056 C65.8258492,25.7556477 65.1470831,25.3304801 64.400783,25.3304801 L47,25.3304801 L47,23.918108 C47,22.859557 47.8666869,22 48.9354866,22 L66.8427749,22 C67.5890751,22 68.2678412,22.4251677 68.589362,23.0925256 L75.8115898,38.1078362 C75.936381,38.3660431 76,38.6485175 76,38.9343893 L76,55 L73.5580081,55 L73.5580081,42.2648694 Z" id="Fill-6" fill="#1FA7DF"></path>
                <polygon id="Fill-8" fill="#101321" points="70 34 65.7344261 25 51 25 51 34"></polygon>
                <path d="M72.5230461,48 L76,48 L76,41 L72.4283567,41 C71.6392786,41 71,41.5614785 71,42.254086 L71,46.6623083 C71,47.4011189 71.6818637,48 72.5230461,48" id="Fill-10" fill="#F8CD0D"></path>
                <path d="M73.0612485,41.3942423 C73.0612485,41.2604815 73.041225,41.1289207 73,41 L76,41 L76,48 L73.0612485,48 L73.0612485,41.3942423 Z" id="Fill-12" fill="#FBE276"></path>
                <path d="M51,56.4997571 C51,61.7464645 55.2529409,66 60.5,66 C65.7465732,66 70,61.7464645 70,56.4997571 C70,51.2530496 65.7465732,47 60.5,47 C55.2529409,47 51,51.2530496 51,56.4997571" id="Fill-14" fill="#4E5E84"></path>
                <path d="M56,57.0002403 C56,59.2098877 57.7907005,61 60,61 C62.2092995,61 64,59.2098877 64,57.0002403 C64,54.7905929 62.2092995,53 60,53 C57.7907005,53 56,54.7905929 56,57.0002403" id="Fill-16" fill="#78839E"></path>
                <path d="M35.959899,24.7871144 L38.2915115,9.7714527 L38.2919924,9.7714527 C38.2919924,9.76954152 38.2924732,9.76858593 38.2934349,9.76858593 L55.9456985,9.00076946 C56.3871133,8.98165766 56.7612099,9.32089207 56.7804437,9.75950783 L56.9992277,14.7228417 C57.0184614,15.1614575 56.6761005,15.5317486 56.2346857,15.5508604 C53.4395397,15.6726981 44.6439414,16.0554118 44.6439414,16.0554118 C44.2626322,16.0721346 43.9462368,16.3549893 43.8875739,16.7291027 C43.2115072,21.0875482 40.3894339,53.9163611 40.3894339,53.9163611 L3.23221479,55 L2.00077334,27.0604628 C1.98153958,26.6213692 2.32341965,26.2506004 2.76483443,26.2314886 L35.959899,24.7871144 Z" id="Fill-18" fill="#53BEED"></path>
                <path d="M19,43.0704797 C19,44.1356168 20.1190426,45 21.5,45 C22.8809574,45 24,44.1356168 24,43.0704797 L24,33.9290445 C24,32.8629561 22.8809574,32 21.5,32 C20.1190426,32 19,32.8629561 19,33.9290445 L19,43.0704797 Z" id="Fill-20" fill="#4E5E84"></path>
                <path d="M9,43.0704797 C9,44.1356168 10.1189252,45 11.5002624,45 C12.8810748,45 14,44.1356168 14,43.0704797 L14,33.9290445 C14,32.8629561 12.8810748,32 11.5002624,32 C10.1189252,32 9,32.8629561 9,33.9290445 L9,43.0704797 Z" id="Fill-22" fill="#4E5E84"></path>
                <path d="M11.1054803,32 C11.4263406,32 11.7277549,32.0670765 12,32.1841036 C11.2849146,32.4923702 10.7881556,33.1564753 10.7881556,33.9295203 L10.7881556,43.0704797 C10.7881556,43.843049 11.2849146,44.5076298 12,44.8158964 C11.7277549,44.9324478 11.4263406,45 11.1054803,45 C9.94225103,45 9,44.1360925 9,43.0704797 L9,33.9295203 C9,32.8629561 9.94225103,32 11.1054803,32" id="Fill-24" fill="#3E4B6B"></path>
                <path d="M21.1056587,32 C21.4261715,32 21.7281167,32.0670765 22,32.1841036 C21.2851459,32.4923702 20.7886826,33.1564753 20.7886826,33.9295203 L20.7886826,43.0704797 C20.7886826,43.843049 21.2851459,44.5076298 22,44.8158964 C21.7281167,44.9324478 21.4261715,45 21.1056587,45 C19.9429708,45 19,44.1360925 19,43.0704797 L19,33.9295203 C19,32.8629561 19.9429708,32 21.1056587,32" id="Fill-26" fill="#3E4B6B"></path>
                <path d="M31,43.0704797 C31,44.1356168 32.1198573,45 33.5005248,45 C34.8811923,45 36,44.1356168 36,43.0704797 L36,33.9290445 C36,32.8629561 34.8811923,32 33.5005248,32 C32.1198573,32 31,32.8629561 31,33.9290445 L31,43.0704797 Z" id="Fill-28" fill="#4E5E84"></path>
                <path d="M33.1059222,32 C33.4263406,32 33.7281968,32.0670765 34,32.1841036 C33.2849146,32.4923702 32.7890395,33.1564753 32.7890395,33.9295203 L32.7890395,43.0704797 C32.7890395,43.843049 33.2849146,44.5076298 34,44.8158964 C33.7281968,44.9324478 33.4263406,45 33.1059222,45 C31.9431349,45 31,44.1360925 31,43.0704797 L31,33.9295203 C31,32.8629561 31.9431349,32 33.1059222,32" id="Fill-30" fill="#3E4B6B"></path>
                <path d="M4,56.4997571 C4,61.7464645 8.25402143,66 13.5002429,66 C18.7469504,66 23,61.7464645 23,56.4997571 C23,51.2530496 18.7469504,47 13.5002429,47 C8.25402143,47 4,51.2530496 4,56.4997571" id="Fill-32" fill="#4E5E84"></path>
                <path d="M9,57.0002403 C9,59.2098877 10.7911811,61 13,61 C15.2097801,61 17,59.2098877 17,57.0002403 C17,54.7905929 15.2097801,53 13,53 C10.7911811,53 9,54.7905929 9,57.0002403" id="Fill-34" fill="#78839E"></path>
                <path d="M50.8437211,40 L55.1558161,40 C55.621876,40 56,39.5518376 56,39.0005485 C56,38.4470653 55.621876,38 55.1558161,38 L50.8437211,38 C50.3776612,38 50,38.4470653 50,39.0005485 C50,39.5518376 50.3776612,40 50.8437211,40" id="Fill-36" fill="#101321"></path>
                <path d="M802,58 L860,58 L860,35.3314249 C860,27.416976 853.691176,21 845.907979,21 L816.092021,21 C808.308824,21 802,27.416976 802,35.3314249 L802,58 Z" id="Fill-38" fill="#1FA7DF"></path>
                <path d="M816.033486,21 L820,21 C812.248656,21 805.966037,27.416489 805.966037,35.3314249 L805.966037,58 L802,58 L802,35.3314249 C802,27.416489 808.282618,21 816.033486,21" id="Fill-40" fill="#3D8FCD"></path>
                <path d="M857.637368,37.3097648 C857.637368,29.3947247 851.3268,22.9781513 843.54252,22.9781513 L813.72058,22.9781513 C810.869905,22.9781513 808.217512,23.8391487 806,25.3181358 C808.558999,22.6543033 812.130486,21 816.082733,21 L845.905151,21 C853.68991,21 860,27.4165734 860,35.3316135 L860,58 L857.637368,58 L857.637368,37.3097648 Z" id="Fill-42" fill="#53BEED"></path>
                <path d="M797,58.4997316 C797,59.8803006 797.981231,61 799.192121,61 L811.808349,61 C813.018769,61 814,59.8803006 814,58.4997316 C814,57.1191626 813.018769,56 811.808349,56 L799.192121,56 C797.981231,56 797,57.1191626 797,58.4997316" id="Fill-44" fill="#2D81B4"></path>
                <path d="M798.242846,56 C798.234369,56.0727601 798.23013,56.147328 798.23013,56.2227997 C798.23013,57.3851542 799.212538,58.3278726 800.423359,58.3278726 L813.048674,58.3278726 C813.390116,58.3278726 813.711777,58.2510451 814,58.1177268 C813.884145,59.1747825 812.952129,60 811.819015,60 L799.194171,60 C797.981938,60 797,59.0572817 797,57.8944752 C797,57.0593153 797.507688,56.3398486 798.242846,56" id="Fill-46" fill="#005D98"></path>
                <g id="Group-50" transform="translate(848.000000, 55.000000)">
                    <mask id="mask-4" fill="white">
                        <use xlink:href="#path-3"></use>
                    </mask>
                    <g id="Clip-49"></g>
                    <path d="M17.9633676,2.60685 C17.9633676,3.89285 16.9485568,4.93585 15.6973135,4.93585 L2.65558378,4.93585 C1.40434054,4.93585 0.390016216,3.89285 0.390016216,2.60685 C0.390016216,1.32085 1.40434054,0.27835 2.65558378,0.27835 L15.6973135,0.27835 C16.9485568,0.27835 17.9633676,1.32085 17.9633676,2.60685" id="Fill-48" fill="#2D81B4" mask="url(#mask-4)"></path>
                </g>
                <g id="Group-53" transform="translate(848.000000, 55.000000)">
                    <mask id="mask-6" fill="white">
                        <use xlink:href="#path-5"></use>
                    </mask>
                    <g id="Clip-52"></g>
                    <path d="M16.4796811,4.39595 C16.4796811,3.10995 15.4648703,2.06695 14.213627,2.06695 L1.1718973,2.06695 C0.910167568,2.06695 0.660113514,2.11495 0.4266,2.19845 C0.61487027,1.10745 1.53968108,0.27845 2.65568108,0.27845 L15.6974108,0.27845 C16.9486541,0.27845 17.9634649,1.32095 17.9634649,2.60695 C17.9634649,3.62445 17.327627,4.48745 16.4427081,4.80395 C16.465573,4.67145 16.4796811,4.53545 16.4796811,4.39595" id="Fill-51" fill="#54A1CC" mask="url(#mask-6)"></path>
                </g>
                <path d="M839,37 L856,37 L856,35.9108713 C856,30.4373017 851.668346,26 846.326671,26 L839,26 L839,37 Z" id="Fill-54" fill="#4E5E84"></path>
                <mask id="mask-8" fill="white">
                    <use xlink:href="#path-7"></use>
                </mask>
                <g id="Clip-57"></g>
                <polygon id="Fill-56" fill="#43506C" mask="url(#mask-8)" points="839 37 842 37 842 26 839 26"></polygon>
                <polygon id="Fill-58" fill="#4E5E84" mask="url(#mask-8)" points="829 37 835 37 835 26 829 26"></polygon>
                <polygon id="Fill-59" fill="#4E5E84" mask="url(#mask-8)" points="819 37 825 37 825 26 819 26"></polygon>
                <polygon id="Fill-60" fill="#43506C" mask="url(#mask-8)" points="819 37 821 37 821 26 819 26"></polygon>
                <polygon id="Fill-61" fill="#43506C" mask="url(#mask-8)" points="829 37 831 37 831 26 829 26"></polygon>
                <path d="M809,37 L815,37 L815,26 C811.685924,26 809,28.7367848 809,32.1113882 L809,37 Z" id="Fill-62" fill="#4E5E84" mask="url(#mask-8)"></path>
                <path d="M815,26 L815,26.4637773 C812.824235,27.3808596 811.293758,29.563605 811.293758,32.1113882 L811.293758,37 L809,37 L809,32.1113882 C809,28.7362862 811.685924,26 815,26" id="Fill-63" fill="#43506C" mask="url(#mask-8)"></path>
                <path d="M860,43.2637119 L860,51.7362881 C859.606092,51.9062927 859.18113,52 858.738302,52 C856.673898,52 855,49.9850364 855,47.4994879 C855,45.0149636 856.673898,43 858.738302,43 C859.18113,43 859.606092,43.0931953 860,43.2637119" id="Fill-64" fill="#F8CD0D" mask="url(#mask-8)"></path>
                <path d="M858,51.8852981 L858,43.1147019 C858.384958,43.040965 858.784512,43 859.196229,43 C859.829313,43 860.436854,43.0931953 861,43.2637119 L861,51.7362881 C860.436854,51.9062927 859.829313,52 859.196229,52 C858.784512,52 858.384958,51.9595471 858,51.8852981" id="Fill-65" fill="#F8CD0D" mask="url(#mask-8)"></path>
                <polygon id="Fill-66" fill="#53BEED" mask="url(#mask-8)" points="802 43 847 43 847 40 802 40"></polygon>
                <polygon id="Fill-67" fill="#005D98" mask="url(#mask-8)" points="802 43 806 43 806 40 802 40"></polygon>
                <polygon id="Fill-68" fill="#53BEED" mask="url(#mask-8)" points="802 48 847 48 847 45 802 45"></polygon>
                <polygon id="Fill-69" fill="#005D98" mask="url(#mask-8)" points="802 48 806 48 806 45 802 45"></polygon>
                <path d="M822,58.5002354 C822,62.6420299 818.642185,66 814.499529,66 C810.357345,66 807,62.6420299 807,58.5002354 C807,54.3579701 810.357345,51 814.499529,51 C818.642185,51 822,54.3579701 822,58.5002354" id="Fill-70" fill="#4E5E84" mask="url(#mask-8)"></path>
                <path d="M818,58.5 C818,60.4333086 816.432789,62 814.5,62 C812.567211,62 811,60.4333086 811,58.5 C811,56.5666914 812.567211,55 814.5,55 C816.432789,55 818,56.5666914 818,58.5" id="Fill-71" fill="#F5F5F5" mask="url(#mask-8)"></path>
                <path d="M818,58.5 C818,60.4333086 816.432789,62 814.5,62 C812.567211,62 811,60.4333086 811,58.5 C811,56.5666914 812.567211,55 814.5,55 C816.432789,55 818,56.5666914 818,58.5" id="Fill-72" fill="#78839E" mask="url(#mask-8)"></path>
                <path d="M840,58.5002354 C840,62.6420299 843.35771,66 847.499765,66 C851.64229,66 855,62.6420299 855,58.5002354 C855,54.3579701 851.64229,51 847.499765,51 C843.35771,51 840,54.3579701 840,58.5002354" id="Fill-73" fill="#4E5E84" mask="url(#mask-8)"></path>
                <path d="M845,58.5 C845,60.4333086 846.567327,62 848.49974,62 C850.433192,62 852,60.4333086 852,58.5 C852,56.5666914 850.433192,55 848.49974,55 C846.567327,55 845,56.5666914 845,58.5" id="Fill-74" fill="#78839E" mask="url(#mask-8)"></path>
                <polygon id="Fill-75" fill="#98D9F2" mask="url(#mask-8)" points="110 36 155 36 155 30 110 30"></polygon>
                <path d="M153.369293,36.1537005 C154.530307,36.1537005 155.472216,35.2276661 155.472216,34.0857464 L155.472216,15.0679541 C155.472216,13.9260344 156.414126,13 157.57514,13 L176.166293,13 C177.056195,13 177.85075,13.5520225 178.147866,14.3772158 L185.879131,35.8185101 C185.959068,36.0405501 186,36.2739524 186,36.5092485 L186,53.9320459 C186,55.0739656 185.058091,56 183.897077,56 L109.102923,56 C107.941909,56 107,55.0739656 107,53.9320459 L107,38.2216546 C107,37.0797349 107.941909,36.1537005 109.102923,36.1537005 L153.369293,36.1537005 Z" id="Fill-76" fill="#53BEED" mask="url(#mask-8)"></path>
                <path d="M109.103392,37 L110.351077,37 L110.351077,51.211355 C110.351077,52.3616412 111.292981,53.2948473 112.453988,53.2948473 L186,53.2948473 L186,54.9160305 C186,56.0667939 185.058096,57 183.896126,57 L109.103392,57 C107.941904,57 107,56.0667939 107,54.9160305 L107,39.0839695 C107,37.9332061 107.941904,37 109.103392,37" id="Fill-77" fill="#22A0DA" mask="url(#mask-8)"></path>
                <path d="M182.748438,38.8394843 C182.748438,38.6046617 182.708215,38.3703125 182.629661,38.148746 L175.032179,16.7069782 C174.739731,15.881785 173.959871,15.3302358 173.083949,15.3302358 L155,15.3302358 L155,15.0679541 C155,13.9260344 155.925137,13 157.066534,13 L175.335983,13 C176.21096,13 176.991766,13.5520225 177.283267,14.3772158 L184.881223,35.8185101 C184.959303,36.0405501 185,36.2744258 185,36.5092485 L185,53.9320459 C185,55.0739656 184.074863,56 182.932993,56 L182.748438,56 L182.748438,38.8394843 Z" id="Fill-78" fill="#98D9F2" mask="url(#mask-8)"></path>
                <polygon id="Fill-79" fill="#4E5E84" mask="url(#mask-8)" points="179 31 174.02758 17 160 17 160 31"></polygon>
                <path d="M159,56.5 C159,61.7461835 163.252972,66 168.500238,66 C173.746553,66 178,61.7461835 178,56.5 C178,51.253341 173.746553,47 168.500238,47 C163.252972,47 159,51.253341 159,56.5" id="Fill-80" fill="#4E5E84" mask="url(#mask-8)"></path>
                <path d="M115,56.5 C115,61.7461835 119.253447,66 124.500238,66 C129.747028,66 134,61.7461835 134,56.5 C134,51.253341 129.747028,47 124.500238,47 C119.253447,47 115,51.253341 115,56.5" id="Fill-81" fill="#4E5E84" mask="url(#mask-8)"></path>
                <path d="M166,56.0002346 C166,57.6563453 167.342821,59 169,59 C170.656709,59 172,57.6563453 172,56.0002346 C172,54.3436547 170.656709,53 169,53 C167.342821,53 166,54.3436547 166,56.0002346" id="Fill-82" fill="#78839E" mask="url(#mask-8)"></path>
                <path d="M121,56.0002346 C121,57.6563453 122.342821,59 124.000469,59 C125.656709,59 127,57.6563453 127,56.0002346 C127,54.3436547 125.656709,53 124.000469,53 C122.342821,53 121,54.3436547 121,56.0002346" id="Fill-83" fill="#78839E" mask="url(#mask-8)"></path>
                <polygon id="Fill-84" fill="#F8CD0D" mask="url(#mask-8)" points="180 49 186 49 186 41 180 41"></polygon>
                <polygon id="Fill-85" fill="#FBE276" mask="url(#mask-8)" points="183 49 185 49 185 41 183 41"></polygon>
                <path d="M159.830794,40 L165.169661,40 C165.628125,40 166,39.5523862 166,39 C166,38.4476138 165.628125,38 165.169661,38 L159.830794,38 C159.371875,38 159,38.4476138 159,39 C159,39.5523862 159.371875,40 159.830794,40" id="Fill-86" fill="#333333" mask="url(#mask-8)"></path>
                <path d="M163,9 L172,9 L172,4.18710611 C172,1.87503874 170.003246,0 167.540103,0 L167.459897,0 C164.996754,0 163,1.87503874 163,4.18710611 L163,9 Z" id="Fill-87" fill="#EC5D5D" mask="url(#mask-8)"></path>
                <path d="M169.807019,5.56049179 C169.807019,3.24749458 167.810113,1.37245583 165.34629,1.37245583 L165.266572,1.37245583 C164.826391,1.37245583 164.402055,1.43336088 164,1.54447774 C164.818469,0.602541585 166.063254,0 167.459553,0 L167.539271,0 C170.003095,0 172,1.87503874 172,4.18803595 L172,9 L169.807019,9 L169.807019,5.56049179 Z" id="Fill-88" fill="#EF6F6F" mask="url(#mask-8)"></path>
                <polygon id="Fill-89" fill="#4E5E84" mask="url(#mask-8)" points="160 13 174 13 174 9 160 9"></polygon>
                <polygon id="Fill-90" fill="#78839E" mask="url(#mask-8)" points="171 13 174 13 174 9 171 9"></polygon>
                <path d="M226.279511,43.8020451 C226.821645,43.8020451 227.286537,43.4190765 227.396203,42.8856047 C229.364959,33.2471641 237.849346,26 248.017831,26 C258.188224,26 266.672134,33.2471641 268.639935,42.8856047 C268.748648,43.4181179 269.215447,43.8020451 269.756628,43.8020451 L274.85899,43.8020451 C275.488858,43.8020451 276,44.3158652 276,44.9495127 L276,57.8525324 C276,58.4861799 275.488858,59 274.85899,59 L224.14101,59 C223.510188,59 223,58.4861799 223,57.8525324 L223,44.9495127 C223,44.3158652 223.510188,43.8020451 224.14101,43.8020451 L226.279511,43.8020451 Z" id="Fill-91" fill="#1FA7DF" mask="url(#mask-8)"></path>
                <path d="M273.718414,47.067756 C273.718414,46.4345969 273.211657,45.920305 272.585664,45.920305 L267.52236,45.920305 C266.985794,45.920305 266.522569,45.537342 266.414215,45.003878 C264.461476,35.3674946 256.042508,28.1189978 245.949966,28.1189978 C241.057946,28.1189978 236.561016,29.8262745 233,32.6800436 C236.811318,28.5690632 242.225236,26 248.232025,26 C258.323621,26 266.743535,33.2480174 268.696747,42.8853595 C268.804628,43.4183442 269.26738,43.8022658 269.804892,43.8022658 L274.868197,43.8022658 C275.493244,43.8022658 276,44.3160784 276,44.9492375 L276,57.8535076 C276,58.4861874 275.493244,59 274.868197,59 L273.718414,59 L273.718414,47.067756 Z" id="Fill-92" fill="#98D9F2" mask="url(#mask-8)"></path>
                <path d="M250,44 L263,44 C263,37.3728622 257.425938,32 250.549549,32 L250,32 L250,44 Z" id="Fill-93" fill="#78839E" mask="url(#mask-8)"></path>
                <path d="M246,44 L233,44 C233,37.3728622 238.574062,32 245.449966,32 L246,32 L246,44 Z" id="Fill-94" fill="#78839E" mask="url(#mask-8)"></path>
                <path d="M256,58.9995204 C256,62.8659222 259.134557,66 263,66 C266.865922,66 270,62.8659222 270,58.9995204 C270,55.1335982 266.865922,52 263,52 C259.134557,52 256,55.1335982 256,58.9995204" id="Fill-95" fill="#4E5E84" mask="url(#mask-8)"></path>
                <path d="M242,58.9995204 C242,62.8659222 238.86603,66 234.99976,66 C231.13493,66 228,62.8659222 228,58.9995204 C228,55.1335982 231.13493,52 234.99976,52 C238.86603,52 242,55.1335982 242,58.9995204" id="Fill-96" fill="#4E5E84" mask="url(#mask-8)"></path>
                <path d="M261,59.5 C261,60.8815291 262.119205,62 263.499527,62 C264.880795,62 266,60.8815291 266,59.5 C266,58.1194171 264.880795,57 263.499527,57 C262.119205,57 261,58.1194171 261,59.5" id="Fill-97" fill="#78839E" mask="url(#mask-8)"></path>
                <path d="M238,59.5 C238,60.8815291 236.881268,62 235.5,62 C234.119678,62 233,60.8815291 233,59.5 C233,58.1194171 234.119678,57 235.5,57 C236.881268,57 238,58.1194171 238,59.5" id="Fill-98" fill="#78839E" mask="url(#mask-8)"></path>
                <path d="M249.975109,49 L253.024891,49 C253.563755,49 254,48.5522722 254,48.0002239 C254,47.4477278 253.563755,47 253.024891,47 L249.975109,47 C249.436681,47 249,47.4477278 249,48.0002239 C249,48.5522722 249.436681,49 249.975109,49" id="Fill-99" fill="#333333" mask="url(#mask-8)"></path>
                <path d="M276,47.9325285 L276,52.0674715 C275.471397,52.6405593 274.727273,53 273.901109,53 C272.298004,53 271,51.6562237 271,49.9997708 C271,48.3433178 272.298004,47 273.901109,47 C274.727273,47 275.471397,47.3589822 276,47.9325285" id="Fill-100" fill="#F8CD0D" mask="url(#mask-8)"></path>
                <path d="M274,52.9977076 L274,47.0022924 C274.012443,47.0022924 274.024471,47 274.036914,47 C274.809623,47 275.505599,47.3589822 276,47.9325285 L276,52.0674715 C275.505599,52.6405593 274.809623,53 274.036914,53 C274.024471,53 274.012443,52.9977076 274,52.9977076" id="Fill-101" fill="#98D6D3" mask="url(#mask-8)"></path>
                <path d="M493,56.0428156 C493,57.124054 493.882097,58 494.970448,58 L534,58 L534,14.9571844 C534,13.8764223 533.117903,13 532.029072,13 L494.970448,13 C493.882097,13 493,13.8764223 493,14.9571844 L493,56.0428156 Z" id="Fill-102" fill="#1FA7DF" mask="url(#mask-8)"></path>
                <path d="M494.971431,13 L496.596062,13 L496.596062,52.4033405 C496.596062,53.4845675 497.478649,54.3600279 498.567972,54.3600279 L534,54.3600279 L534,58 L494.971431,58 C493.882107,58 493,57.1231106 493,56.04236 L493,14.95764 C493,13.8764131 493.882107,13 494.971431,13" id="Fill-103" fill="#3D8FCD" mask="url(#mask-8)"></path>
                <path d="M549.331598,24 C550.107905,24 550.809422,24.4703262 551.117105,25.1967992 L556.840478,38.7103557 C556.946037,38.9578196 557,39.2250614 557,39.4951974 L557,56.0178767 C557,57.1128925 556.129021,58 555.054971,58 L534,58 L534,39.0856519 L534,24 L549.331598,24 Z" id="Fill-104" fill="#8CC6E0" mask="url(#mask-8)"></path>
                <polygon id="Fill-105" fill="#4E5E84" mask="url(#mask-8)" points="551 36 547.688045 28 537 28 537 36"></polygon>
                <polygon id="Fill-106" fill="#43506C" mask="url(#mask-8)" points="537 36 540 36 540 28 537 28"></polygon>
                <path d="M537,58 C537,62.4184342 540.581566,66 545,66 C549.418434,66 553,62.4184342 553,58 C553,53.5815658 549.418434,50 545,50 C540.581566,50 537,53.5815658 537,58" id="Fill-107" fill="#4E5E84" mask="url(#mask-8)"></path>
                <path d="M500,58 C500,62.4184342 503.581193,66 508.00024,66 C512.417846,66 516,62.4184342 516,58 C516,53.5815658 512.417846,50 508.00024,50 C503.581193,50 500,53.5815658 500,58" id="Fill-108" fill="#4E5E84" mask="url(#mask-8)"></path>
                <path d="M542,57.5 C542,58.8804311 543.119237,60 544.500214,60 C545.881191,60 547,58.8804311 547,57.5 C547,56.1191413 545.881191,55 544.500214,55 C543.119237,55 542,56.1191413 542,57.5" id="Fill-109" fill="#78839E" mask="url(#mask-8)"></path>
                <path d="M505,57.5 C505,58.8804311 506.118809,60 507.500214,60 C508.880335,60 510,58.8804311 510,57.5 C510,56.1191413 508.880335,55 507.500214,55 C506.118809,55 505,56.1191413 505,57.5" id="Fill-110" fill="#78839E" mask="url(#mask-8)"></path>
                <path d="M502,35.4997558 C502,41.8511691 507.148722,47 513.5,47 C519.851278,47 525,41.8511691 525,35.4997558 C525,29.1488309 519.851278,24 513.5,24 C507.148722,24 502,29.1488309 502,35.4997558" id="Fill-111" fill="#3D8FCD" mask="url(#mask-8)"></path>
                <path d="M513.975598,27.3094459 C513.886526,27.1198489 513.70135,27 513.499766,27 C513.29865,27 513.113474,27.1198489 513.024402,27.3094459 L511.117321,31.3572928 C511.039501,31.5213483 510.890891,31.6353029 510.718372,31.6613357 L506.454632,32.3106809 C506.254454,32.3416255 506.088967,32.4879983 506.026148,32.6888925 C505.963329,32.8902779 506.015834,33.1118019 506.160694,33.2586659 L509.246339,36.4091197 C509.37104,36.5373188 509.428233,36.7215127 509.39823,36.9012861 L508.670652,41.3504303 C508.63596,41.5582011 508.717532,41.7694102 508.881143,41.8931886 C509.044286,42.0184405 509.26134,42.0346495 509.440422,41.9359216 L513.253177,39.8361102 C513.407412,39.7511353 513.592588,39.750153 513.746823,39.8361102 L517.560047,41.9359216 C517.73866,42.0346495 517.955714,42.0184405 518.119326,41.8931886 C518.282937,41.7694102 518.364508,41.5591835 518.330286,41.3504303 L517.602239,36.9012861 C517.572704,36.7215127 517.629898,36.5373188 517.755068,36.4091197 L520.839306,33.2586659 C520.984166,33.1118019 521.036671,32.8902779 520.973852,32.6888925 C520.911033,32.4879983 520.745077,32.3416255 520.545368,32.3106809 L516.281628,31.6613357 C516.109109,31.6353029 515.960031,31.5213483 515.88221,31.3572928 L513.975598,27.3094459 Z" id="Fill-112" fill="#53BEED" mask="url(#mask-8)"></path>
                <path d="M526,21.591215 C526,21.8172063 526.196145,22 526.438644,22 L529.561356,22 C529.803855,22 530,21.8172063 530,21.591215 L530,17.4092397 C530,17.1832485 529.803855,17 529.561356,17 L526.438644,17 C526.196145,17 526,17.1832485 526,17.4092397 L526,21.591215 Z" id="Fill-113" fill="#4E5E84" mask="url(#mask-8)"></path>
                <path d="M519,21.591215 C519,21.8172063 519.196193,22 519.438751,22 L522.561249,22 C522.803807,22 523,21.8172063 523,21.591215 L523,17.4092397 C523,17.1832485 522.803807,17 522.561249,17 L519.438751,17 C519.196193,17 519,17.1832485 519,17.4092397 L519,21.591215 Z" id="Fill-114" fill="#4E5E84" mask="url(#mask-8)"></path>
                <path d="M501,21.591215 C501,21.8172063 500.803855,22 500.561356,22 L497.438644,22 C497.196145,22 497,21.8172063 497,21.591215 L497,17.4092397 C497,17.1832485 497.196145,17 497.438644,17 L500.561356,17 C500.803855,17 501,17.1832485 501,17.4092397 L501,21.591215 Z" id="Fill-115" fill="#4E5E84" mask="url(#mask-8)"></path>
                <path d="M497.459142,17 L499,17 C498.74617,17 498.540347,17.1827937 498.540347,17.408785 L498.540347,21.591215 C498.540347,21.8172063 498.74617,22 499,22 L497.459142,22 C497.205822,22 497,21.8172063 497,21.591215 L497,17.408785 C497,17.1827937 497.205822,17 497.459142,17" id="Fill-116" fill="#43506C" mask="url(#mask-8)"></path>
                <path d="M508,21.591215 C508,21.8172063 507.803855,22 507.561356,22 L504.438644,22 C504.196145,22 504,21.8172063 504,21.591215 L504,17.4092397 C504,17.1832485 504.196145,17 504.438644,17 L507.561356,17 C507.803855,17 508,17.1832485 508,17.4092397 L508,21.591215 Z" id="Fill-117" fill="#4E5E84" mask="url(#mask-8)"></path>
                <path d="M504.459535,17 L506,17 C505.746745,17 505.540465,17.1827937 505.540465,17.408785 L505.540465,21.591215 C505.540465,21.8172063 505.746745,22 506,22 L504.459535,22 C504.20628,22 504,21.8172063 504,21.591215 L504,17.408785 C504,17.1827937 504.20628,17 504.459535,17" id="Fill-118" fill="#43506C" mask="url(#mask-8)"></path>
                <path d="M519.459142,17 L521,17 C520.745659,17 520.539837,17.1827937 520.539837,17.408785 L520.539837,21.591215 C520.539837,21.8172063 520.745659,22 521,22 L519.459142,22 C519.205312,22 519,21.8172063 519,21.591215 L519,17.408785 C519,17.1827937 519.205312,17 519.459142,17" id="Fill-119" fill="#43506C" mask="url(#mask-8)"></path>
                <path d="M526.460046,17 L528,17 C527.746234,17 527.540465,17.1827937 527.540465,17.408785 L527.540465,21.591215 C527.540465,21.8172063 527.746234,22 528,22 L526.460046,22 C526.20628,22 526,21.8172063 526,21.591215 L526,17.408785 C526,17.1827937 526.20628,17 526.460046,17" id="Fill-120" fill="#43506C" mask="url(#mask-8)"></path>
                <path d="M552,47.9356281 C552,48.5234689 552.466982,49 553.044024,49 L557,49 L557,42 L553.044024,42 C552.466982,42 552,42.476084 552,43.0643719 L552,47.9356281 Z" id="Fill-121" fill="#F8CD0D" mask="url(#mask-8)"></path>
                <path d="M555.017786,42.222648 C555.017786,42.1470908 555.009939,42.0733218 555,42 L558,42 L558,49 L555.017786,49 L555.017786,42.222648 Z" id="Fill-122" fill="#FBE276" mask="url(#mask-8)"></path>
                <path d="M537.690823,41 L541.309177,41 C541.690081,41 542,40.77636 542,40.5 C542,40.22364 541.690081,40 541.309177,40 L537.690823,40 C537.308991,40 537,40.22364 537,40.5 C537,40.77636 537.308991,41 537.690823,41" id="Fill-123" fill="#4E5E84" mask="url(#mask-8)"></path>
                <path d="M449,39.9895406 C449,38.5800728 449.896221,37.3890912 451.127728,37 C451.145822,37.0139459 451.164449,37.0269621 451.182544,37.040908 C451.702501,37.4499884 452,38.032463 452,38.6432943 L452,41.4097002 C452,42.0144883 451.708356,42.5913845 451.197978,43 C449.930282,42.634152 449,41.4255055 449,39.9895406" id="Fill-124" fill="#F8CD0D" mask="url(#mask-8)"></path>
                <path d="M418,46.5753479 C418,47.3623758 418.60967,48 419.361709,48 L435.659114,48 C436.399531,48 437,47.3714919 437,46.5966189 C437,45.5705453 436.228107,44.7267947 435.247987,44.6812139 L420.571363,44.002567 C419.900194,43.9711669 419.245489,44.2289515 418.759787,44.7146398 C418.274085,45.2003282 418,45.8728977 418,46.5753479" id="Fill-125" fill="#F8CD0D" mask="url(#mask-8)"></path>
                <path d="M443,58 C443,62.4185482 446.581937,66 451.000486,66 C455.418548,66 459,62.4185482 459,58 C459,53.5814518 455.418548,50 451.000486,50 C446.581937,50 443,53.5814518 443,58" id="Fill-126" fill="#4E5E84" mask="url(#mask-8)"></path>
                <path d="M447,58 C447,59.6568266 448.342815,61 450.000231,61 C451.657185,61 453,59.6568266 453,58 C453,56.3431734 451.657185,55 450.000231,55 C448.342815,55 447,56.3431734 447,58" id="Fill-127" fill="#78839E" mask="url(#mask-8)"></path>
                <path d="M416.118827,59.3747227 L431,59.3747227 C430.301831,63.1535103 427.222952,66 423.530054,66 C419.717403,66 416.557611,62.9636442 416,59 C416.070742,59.2409647 416.118827,59.3747227 416.118827,59.3747227" id="Fill-128" fill="#4E5E84" mask="url(#mask-8)"></path>
                <path d="M426,59 C425.501065,59.5976022 424.568448,60 423.499556,60 C422.431552,60 421.499379,59.5976022 421,59 L426,59 Z" id="Fill-129" fill="#78839E" mask="url(#mask-8)"></path>
                <path d="M419.85988,47.4288882 L433.09514,47.4288882 C431.805098,49.3230782 431.303545,51.5266964 431.608797,54.030808 C431.685345,54.6557778 432.214605,55.1265038 432.842955,55.1265038 L435.872934,55.1265038 C436.451974,55.1265038 436.952117,54.7277269 437.083611,54.1629499 C437.645274,51.7519489 439.067749,49.3385966 441.891096,48.2748782 C442.425522,48.0731385 442.755194,47.533285 442.688978,46.9656863 L442.213724,42.8622351 C442.185077,42.6195831 442.049827,42.402325 441.844134,42.2697129 C441.63938,42.1371008 441.385317,42.1027721 441.152856,42.1775428 C440.739591,42.3101549 440.287818,42.3835148 439.813973,42.3835148 C437.849558,42.3835148 436.257082,41.1284023 436.257082,39.5803205 C436.257082,38.0322388 437.849558,36.776656 439.813973,36.776656 C440.587904,36.776656 441.303603,36.9718122 441.886869,37.3024019 L443.977142,37.0489341 C444.512977,36.6247634 445.169034,36.3435505 445.892246,36.2673691 L448.30045,36.0120203 C448.893109,35.9494763 449.484359,36.132876 449.93801,36.5184857 C448.850843,36.9120897 448.060475,38.1164145 448.060475,39.5422298 C448.060475,40.9948497 448.881369,42.2179848 450,42.5876057 C449.995304,42.591838 449.991077,42.5965406 449.985911,42.6003027 C449.527564,43.0141277 448.914242,43.2130458 448.30045,43.1476803 L446.351064,42.9417083 C446.235068,42.9294816 446.12142,42.9783882 446.050977,43.0710286 C445.979595,43.1631987 445.96175,43.2859355 446.003546,43.3950348 L448.452607,49.7796965 C444.618641,50.240547 441.646425,53.5083539 441.646425,57.4711987 C441.646425,57.9950636 441.698552,58.5062315 441.797642,59 L437.040875,59 L433.09514,59 L415.68544,59 C415.68544,59 412.500956,50.8452959 419.85988,47.4288882" id="Fill-130" fill="#1FA7DF" mask="url(#mask-8)"></path>
                <path d="M441.688078,34.3494874 C441.544526,34.0166073 441.17129,33.8175057 440.785401,33.8680641 L437.602433,34.2864013 C437.284672,34.3284587 437,34.1011696 437,33.8063202 L437,30.4860208 C437,30.2180165 437.236496,30.0005707 437.527494,30.0005707 C441.36691,30.0005707 441.088078,29.9960965 441.211192,30.0122036 C441.683698,29.9477752 442.160097,30.1866972 442.344039,30.6126404 L445,36.7588409 L442.833577,37 L441.688078,34.3494874 Z" id="Fill-131" fill="#4E5E84" mask="url(#mask-8)"></path>
                <path d="M418.670736,57 C418.369685,57 418.115991,56.7816644 418.077333,56.488498 C418.015963,56.0063599 417.98117,55.4673884 418.010647,54.9071042 C418.115991,52.8478349 419.002229,51.3213802 420.713336,50.2666441 C420.996024,50.0918809 421.324135,50 421.659012,50 L429.959403,50 C430.115002,50 430.262386,50.0677267 430.360965,50.1847091 C430.459543,50.3026387 430.500134,50.4575101 430.471141,50.6066982 C430.222279,51.8712449 430.18362,53.2058863 430.358549,54.6039919 C430.4262,55.1524357 430.619008,55.6592016 430.905562,56.0991881 C431.023952,56.279161 431.031201,56.5079161 430.92634,56.6954668 C430.821963,56.8834912 430.620458,57 430.402039,57 L418.670736,57 Z" id="Fill-132" fill="#2D81B4" mask="url(#mask-8)"></path>
                <path d="M438.19306,54.035544 C438.746551,51.6222857 440.148791,49.2062033 442.930593,48.1419598 C443.457242,47.9400312 443.782118,47.3992015 443.717328,46.8310715 L443.248526,42.7242492 C443.227238,42.5402071 443.145325,42.3712272 443.019447,42.2417858 C443.065263,42.2431979 443.111079,42.2450807 443.158283,42.2450807 C443.624771,42.2450807 444.06997,42.1716521 444.477221,42.0389159 C444.7063,41.9640752 444.956204,41.998436 445.158904,42.1311723 C445.360678,42.2634378 445.494423,42.4813701 445.522653,42.7242492 L445.991917,46.8310715 C446.056244,47.3992015 445.731369,47.9400312 445.204719,48.1419598 C442.422917,49.2062033 441.020678,51.6222857 440.46765,54.035544 C440.33807,54.6008498 439.844278,55 439.274127,55 L437,55 C437.570614,55 438.063943,54.6008498 438.19306,54.035544" id="Fill-133" fill="#3684A9" mask="url(#mask-8)"></path>
                <path d="M439.449651,40 C439.449651,41.3158336 440.516949,42.4334116 442,42.8374706 C441.61665,42.9426367 441.204885,43 440.775673,43 C438.690429,43 437,41.6564911 437,40 C437,38.3435089 438.690429,37 440.775673,37 C441.204387,37 441.615653,37.0578665 441.999003,37.1630325 C440.515952,37.5675948 439.449651,38.6846696 439.449651,40" id="Fill-134" fill="#3684A9" mask="url(#mask-8)"></path>
                <path d="M419.746251,47 L422,47 C414.813136,50.5430383 417.923622,59 417.923622,59 L415.669414,59 C415.669414,59 412.559387,50.5430383 419.746251,47" id="Fill-135" fill="#3684A9" mask="url(#mask-8)"></path>
                <path d="M418.817784,44.7147303 C419.340561,44.2289804 420.04472,43.9711633 420.767122,44.0025673 L423,44.098299 C422.58772,44.2117589 422.206192,44.4214569 421.890858,44.7147303 C421.368602,45.2004802 421.072032,45.8731348 421.072032,46.575674 C421.072032,47.362295 421.728761,48 422.538205,48 L419.465131,48 C418.655165,48 418,47.362295 418,46.575674 C418,45.8731348 418.295007,45.2004802 418.817784,44.7147303" id="Fill-136" fill="#F2B21B" mask="url(#mask-8)"></path>
                <path d="M435.098894,46.5966109 C435.098894,45.5705314 434.329674,44.7262695 433.35356,44.6811949 L420,44.0607865 C420.207376,44.0126732 420.421504,43.992415 420.638043,44.0025441 L435.255149,44.6811949 C436.23078,44.7262695 437,45.5705314 437,46.5966109 C437,47.3714883 436.401986,48 435.664596,48 L433.763007,48 C434.500879,48 435.098894,47.3714883 435.098894,46.5966109" id="Fill-137" fill="#FBE276" mask="url(#mask-8)"></path>
                <path d="M437.527526,30 L438.206886,30 L438.206886,32.6963692 C438.206886,32.9916901 438.490602,33.2185502 438.809356,33.1773843 L441.992031,32.7585656 C442.377943,32.7075556 442.751201,32.906226 442.894762,33.2395807 L444.040818,35.8903094 L444.598029,35.828113 L445,36.7583738 L442.833932,37 L441.688363,34.3492713 C441.544802,34.0163641 441.171057,33.8167988 440.785145,33.8678087 L437.601983,34.28618 C437.284689,34.3282409 437,34.1009333 437,33.8060598 L437,30.4854896 C437,30.2170161 437.236024,30 437.527526,30" id="Fill-138" fill="#31375E" mask="url(#mask-8)"></path>
                <path d="M418.010364,55.7623698 C418.109426,53.6862703 418.904817,52.1175492 420.428914,51 C419.848076,51.8987992 419.530596,52.9722946 419.469709,54.2326389 C419.441199,54.8316696 419.475024,55.4079138 419.536878,55.9233941 C419.575052,56.2368345 419.82923,56.4702691 420.13028,56.4702691 L430.621616,56.4702691 C430.701349,56.6687645 430.796544,56.8576389 430.905754,57.0368924 C431.024144,57.228805 431.030909,57.473886 430.926532,57.6744068 C430.821672,57.875434 430.621133,58 430.402231,58 L418.670452,58 C418.369402,58 418.116191,57.7665654 418.078016,57.453125 C418.016163,56.9371383 417.981371,56.3614005 418.010364,55.7623698" id="Fill-139" fill="#005D98" mask="url(#mask-8)"></path>
                <path d="M451.238095,41.4095769 L451.238095,38.6434217 C451.238095,38.213854 451.153541,37.7986983 451,37.4481636 C451.150488,37.2529056 451.318987,37.0994886 451.499695,37 C451.510379,37.0134821 451.521062,37.0264993 451.531136,37.0409112 C451.829365,37.4495583 452,38.0320781 452,38.6434217 L452,41.4095769 C452,42.0148768 451.832723,42.5913529 451.539988,43 C451.351954,42.9051604 451.177045,42.7531381 451.020757,42.5564854 C451.161172,42.2157136 451.238095,41.8196188 451.238095,41.4095769" id="Fill-140" fill="#FBE276" mask="url(#mask-8)"></path>
                <path d="M624,58.5 C624,62.6421569 627.358314,66 631.5,66 C635.642157,66 639,62.6421569 639,58.5 C639,54.3578431 635.642157,51 631.5,51 C627.358314,51 624,54.3578431 624,58.5" id="Fill-141" fill="#4E5E84" mask="url(#mask-8)"></path>
                <path d="M629,57.5002232 C629,58.8809035 630.11875,60 631.5,60 C632.880357,60 634,58.8809035 634,57.5002232 C634,56.1190965 632.880357,55 631.5,55 C630.11875,55 629,56.1190965 629,57.5002232" id="Fill-142" fill="#78839E" mask="url(#mask-8)"></path>
                <path d="M601,58.5 C601,62.6421569 604.358786,66 608.499529,66 C612.642628,66 616,62.6421569 616,58.5 C616,54.3578431 612.642628,51 608.499529,51 C604.358786,51 601,54.3578431 601,58.5" id="Fill-143" fill="#4E5E84" mask="url(#mask-8)"></path>
                <path d="M606,57.5002232 C606,58.8809035 607.119443,60 608.499554,60 C609.880557,60 611,58.8809035 611,57.5002232 C611,56.1190965 609.880557,55 608.499554,55 C607.119443,55 606,56.1190965 606,57.5002232" id="Fill-144" fill="#78839E" mask="url(#mask-8)"></path>
                <path d="M591,48.901537 C591,47.5619597 591.829746,46.3659942 593.07722,45.9073007 L597.957213,44.1133525 C599.228,43.6469741 600.202856,42.5999039 600.58728,41.2910663 L602.899531,33.4121037 C603.494246,31.3885687 605.335484,30 607.426026,30 L631.520543,30 C633.687208,30 635.575547,31.4889529 636.100799,33.6104707 L637.856398,40.6998079 C638.263658,42.3458213 639.533969,43.6320845 641.161585,44.0509126 L647.622092,45.7122959 C649.020861,46.0720461 650,47.3434198 650,48.8001921 L650,55.8136407 C650,57.573487 648.586482,59 646.842778,59 L638.165649,59 C638.196099,58.7190202 638.213702,58.4346782 638.213702,58.1455331 C638.213702,53.9245917 634.824303,50.5028818 630.643219,50.5028818 C626.462612,50.5028818 623.072737,53.9245917 623.072737,58.1455331 C623.072737,58.4346782 623.089864,58.7190202 623.121265,59 L615.377602,59 C615.408527,58.7190202 615.425655,58.4346782 615.425655,58.1455331 C615.425655,53.9245917 612.036731,50.5028818 607.854696,50.5028818 C603.67504,50.5028818 600.284689,53.9245917 600.284689,58.1455331 C600.284689,58.4346782 600.301817,58.7190202 600.333218,59 L594.157222,59 C592.413518,59 591,57.573487 591,55.8136407 L591,48.901537 Z" id="Fill-145" fill="#1FA7DF" mask="url(#mask-8)"></path>
                <path d="M622,34 L632.00991,34 C632.274692,34 632.503821,34.1739911 632.567996,34.4232091 L634.32307,41.2356289 C634.481844,41.8545203 634.710974,42.4447977 635,43 L622,43 L622,34 Z" id="Fill-146" fill="#4E5E84" mask="url(#mask-8)"></path>
                <path d="M619,43 L605,43 C605.158009,42.6672478 605.292824,42.3238808 605.402029,41.970822 L607.751389,34.3996718 C607.824354,34.1642993 608.055327,34 608.312394,34 L619,34 L619,43 Z" id="Fill-147" fill="#4E5E84" mask="url(#mask-8)"></path>
                <path d="M648.453394,55.8131604 L648.453394,48.7997118 C648.453394,47.3429395 647.475611,46.0720461 646.078778,45.7122959 L639.626742,44.0509126 C638.000905,43.6320845 636.733303,42.345341 636.327081,40.6993276 L634.573914,33.6099904 C634.049389,31.4884726 632.16319,30 630,30 L632.546606,30 C634.709796,30 636.595995,31.4884726 637.120045,33.6099904 L638.873688,40.6993276 C639.27991,42.345341 640.548462,43.6320845 642.173824,44.0509126 L648.625385,45.7122959 C650.022692,46.0720461 651,47.3429395 651,48.7997118 L651,55.8131604 C651,57.5730067 649.588914,59 647.847624,59 L645.301018,59 C647.041833,59 648.453394,57.5730067 648.453394,55.8131604" id="Fill-148" fill="#53BEED" mask="url(#mask-8)"></path>
                <path d="M605.702598,51 C606.144586,51 606.578344,51.0412074 607,51.1164999 C603.363402,51.7651348 600.593836,55.0891979 600.593836,59.0949635 C600.593836,59.401221 600.611264,59.702391 600.643699,60 L598.048411,60 C598.017428,59.702391 598,59.401221 598,59.0949635 C598,54.6242157 601.448281,51 605.702598,51" id="Fill-149" fill="#53BEED" mask="url(#mask-8)"></path>
                <path d="M629.702598,51 C630.144586,51 630.578344,51.0412074 631,51.1164999 C627.363886,51.7651348 624.59432,55.0891979 624.59432,59.0949635 C624.59432,59.401221 624.611748,59.702391 624.643699,60 L622.048411,60 C622.017428,59.702391 622,59.401221 622,59.0949635 C622,54.6242157 625.448766,51 629.702598,51" id="Fill-150" fill="#53BEED" mask="url(#mask-8)"></path>
                <path d="M650,55 L643.94644,55 C643.423959,55 643,54.5511458 643,53.9974014 L643,50.0035436 C643,49.4493267 643.423959,49 643.94644,49 L650,49 L650,55 Z" id="Fill-151" fill="#53BEED" mask="url(#mask-8)"></path>
                <path d="M616.427595,37.6099687 C616.427595,36.9596944 615.869671,36.4317215 615.180931,36.4317215 L607,36.4317215 L607.636512,34.3996718 C607.710706,34.1642993 607.943541,34 608.203222,34 L619,34 L619,43 L616.427595,43 L616.427595,37.6099687 Z" id="Fill-152" fill="#43506C" mask="url(#mask-8)"></path>
                <path d="M630.710086,36.2277319 C630.645433,35.9785139 630.41677,35.8045228 630.151503,35.8045228 L622,35.8045228 L622,34 L632.0098,34 C632.275068,34 632.50373,34.1739911 632.568383,34.4232091 L634.323521,41.2356289 C634.482301,41.8540588 634.711439,42.4447977 635,43 L632.453814,43 L630.710086,36.2277319 Z" id="Fill-153" fill="#43506C" mask="url(#mask-8)"></path>
                <polygon id="Fill-154" fill="#98D9F2" mask="url(#mask-8)" points="649 55 652 55 652 49 649 49"></polygon>
                <path d="M643.849993,49 L646,49 C645.530362,49 645.150407,49.4493267 645.150407,50.0035436 L645.150407,53.9974014 C645.150407,54.5511458 645.530362,55 646,55 L643.849993,55 C643.380755,55 643,54.5511458 643,53.9974014 L643,50.0035436 C643,49.4493267 643.380755,49 643.849993,49" id="Fill-155" fill="#22A0DA" mask="url(#mask-8)"></path>
                <path d="M591,48.901537 C591,47.5619597 591.85863,46.3659942 593.149529,45.9073007 L598.199395,44.1133525 C599.514418,43.6469741 600.52321,42.5999039 600.921016,41.2910663 L603.313757,33.4121037 C603.929174,31.3885687 605.834506,30 607.99782,30 L612,30 C609.836686,30 607.93037,31.3885687 607.315445,33.4121037 L604.923196,41.2910663 C604.52539,42.5999039 603.515614,43.6469741 602.201575,44.1133525 L597.151217,45.9073007 C595.86081,46.3659942 595.00218,47.5619597 595.00218,48.901537 L595.00218,55.8136407 C595.00218,57.573487 596.464904,59 598.268814,59 L594.267126,59 C592.462723,59 591,57.573487 591,55.8136407 L591,48.901537 Z" id="Fill-156" fill="#3D8FCD" mask="url(#mask-8)"></path>
                <path d="M319,40 L331,40 L331,30.5136094 C331,29.9873319 330.721633,29.4988508 330.264351,29.2237512 C329.808531,28.9481732 329.238635,28.9256868 328.76039,29.1644254 L320.346496,33.3545509 C319.520171,33.7660042 319,34.5970441 319,35.5060689 L319,40 Z" id="Fill-157" fill="#A8732A" mask="url(#mask-8)"></path>
                <path d="M331,41 L339,41 L339,36.4263386 C339,35.0862249 337.97314,34 336.705657,34 L331,34 L331,41 Z" id="Fill-158" fill="#F8CD0D" mask="url(#mask-8)"></path>
                <path d="M367,40 L354,40 L354,25 C361.007638,27.3970631 367,34.2081774 367,40" id="Fill-159" fill="#53BEED" mask="url(#mask-8)"></path>
                <path d="M350.764025,25.4369548 C351.245969,25.0497309 351.873722,24.9107749 352.469226,25.0566787 C352.984329,25.184055 353.49489,25.340612 354,25.5226442 L354,40 L350,40 L350,27.0377271 C350,26.4128886 350.282535,25.8227891 350.764025,25.4369548" id="Fill-160" fill="#53BEED" mask="url(#mask-8)"></path>
                <path d="M352,57.4995109 C352,62.1940736 355.805656,66 360.500489,66 C365.194833,66 369,62.1940736 369,57.4995109 C369,52.8059264 365.194833,49 360.500489,49 C355.805656,49 352,52.8059264 352,57.4995109" id="Fill-161" fill="#4E5E84" mask="url(#mask-8)"></path>
                <path d="M357,57.9995376 C357,59.6567509 358.342683,61 359.999769,61 C361.65593,61 363,59.6567509 363,57.9995376 C363,56.3427867 361.65593,55 359.999769,55 C358.342683,55 357,56.3427867 357,57.9995376" id="Fill-162" fill="#78839E" mask="url(#mask-8)"></path>
                <path d="M322,57.4995109 C322,62.1940736 325.805656,66 330.5,66 C335.194833,66 339,62.1940736 339,57.4995109 C339,52.8059264 335.194833,49 330.5,49 C325.805656,49 322,52.8059264 322,57.4995109" id="Fill-163" fill="#4E5E84" mask="url(#mask-8)"></path>
                <path d="M327,57.9995376 C327,59.6567509 328.343042,61 329.999538,61 C331.656496,61 333,59.6567509 333,57.9995376 C333,56.3427867 331.656496,55 329.999538,55 C328.343042,55 327,56.3427867 327,57.9995376" id="Fill-164" fill="#78839E" mask="url(#mask-8)"></path>
                <path d="M319.715374,40 L367.251785,40 C369.105188,40 370.891004,40.7118665 372.252737,41.99478 L378.804379,48.1646131 C379.566873,48.8823065 380,49.8913505 380,50.9504097 L380,52.2105008 C380,54.3033687 378.336506,56 376.284626,56 L368.569253,56 C367.801047,52.1498027 364.464065,49.2528073 360.463589,49.2528073 C356.463113,49.2528073 353.125654,52.1498027 352.357925,56 L338.195145,56 C337.42694,52.1498027 334.090433,49.2528073 330.089481,49.2528073 C326.089481,49.2528073 322.752023,52.1498027 321.984769,56 L319.715374,56 C317.663494,56 316,54.3033687 316,52.2105008 L316,43.7899848 C316,41.6961457 317.663494,40 319.715374,40" id="Fill-165" fill="#1FA7DF" mask="url(#mask-8)"></path>
                <path d="M341,46.8459373 C341,47.4826421 341.455567,48 342.017947,48 L347.982053,48 C348.544433,48 349,47.4826421 349,46.8459373 L349,46.1534997 C349,45.5162319 348.544433,45 347.982053,45 L342.017947,45 C341.455567,45 341,45.5162319 341,46.1534997 L341,46.8459373 Z" id="Fill-166" fill="#53BEED" mask="url(#mask-8)"></path>
                <path d="M373.119888,52 C371.949445,52 371,50.9511143 371,49.6580828 L371,47.3419172 C371,46.0474001 371.949445,45 373.119888,45 L375.917119,45 L378.873935,48.0149275 C379.592071,48.7468695 380,49.7759462 380,50.8555359 L380,52 L373.119888,52 Z" id="Fill-167" fill="#F8CD0D" mask="url(#mask-8)"></path>
                <path d="M357.438402,26.5658892 L357.438402,32.5170362 C357.438402,34.8138017 359.365119,36.6762645 361.741121,36.6762645 L366.402772,36.6762645 C366.790002,37.7963336 367,38.9159228 367,40 L354,40 L354,25 C355.183533,25.4045494 356.337279,25.9357904 357.438402,26.5658892" id="Fill-168" fill="#22A0DA" mask="url(#mask-8)"></path>
                <path d="M320.35525,33.353784 L328.824338,29.1642566 C329.305201,28.9255248 329.878803,28.948489 330.338077,29.2235807 C330.657998,29.4154273 330.887635,29.7101343 331,30.0493343 L324.319431,33.353784 C323.488224,33.7647471 322.964181,34.5971985 322.964181,35.5061973 L322.964181,40 L319,40 L319,35.5061973 C319,34.5971985 319.524043,33.7647471 320.35525,33.353784" id="Fill-169" fill="#8C5C24" mask="url(#mask-8)"></path>
                <path d="M333.507551,34 L333.497153,36.7863874 C333.493687,37.6418848 334.147314,38.3376963 334.95593,38.3413613 L339,38.3581152 L339,41 L331,41 L331,34 L333.507551,34 Z" id="Fill-170" fill="#F2B21B" mask="url(#mask-8)"></path>
                <path d="M376.227006,48.0149275 L373,45 L375.544031,45 L378.771037,48.0149275 C379.554795,48.7468695 380,49.7759462 380,50.8555359 L380,52 L377.455969,52 L377.455969,50.8555359 C377.455969,49.7759462 377.010763,48.7468695 376.227006,48.0149275" id="Fill-171" fill="#FBE276" mask="url(#mask-8)"></path>
                <path d="M733.510345,20 L755.454066,20 C756.840992,20 757.964411,21.1288204 757.964411,22.5203105 L757.964411,35.4617328 C757.964411,36.7242417 758.98421,37.7476176 760.242196,37.7476176 C761.212762,37.7476176 762,38.5379802 762,39.5123998 L762,59.2352178 C762,60.2096374 761.212762,61 760.242196,61 L755.454066,61 L751.529599,61 L751.478492,61 C752.240411,59.9657971 752.691935,58.687754 752.691935,57.3028543 C752.691935,53.8693196 749.91949,51.0853981 746.499531,51.0853981 C743.079572,51.0853981 740.307127,53.8693196 740.307127,57.3028543 C740.307127,58.687754 740.758651,59.9657971 741.521039,61 L733.510345,61 C732.123888,61 731,59.8707089 731,58.4792188 L731,22.5203105 C731,21.1288204 732.123888,20 733.510345,20" id="Fill-172" fill="#1FA7DF" mask="url(#mask-8)"></path>
                <path d="M739,37.8597561 C739,39.0418589 739.972192,40 741.171513,40 L749.828988,40 C751.027306,40 752,39.0418589 752,37.8597561 L752,27.1402439 C752,25.9586355 751.027306,25 749.828988,25 L741.171513,25 C739.972192,25 739,25.9586355 739,27.1402439 L739,37.8597561 Z" id="Fill-173" fill="#4E5E84" mask="url(#mask-8)"></path>
                <path d="M760.265392,60.9722254 L760.265392,41.2494431 C760.265392,40.274508 759.475694,39.4841091 758.502094,39.4841091 C757.240176,39.4841091 756.21766,38.4606862 756.21766,37.1976485 L756.21766,24.2565734 C756.21766,22.8645486 755.090259,21.7356764 753.699469,21.7356764 L731.686694,21.7356764 C731.448232,21.7356764 731.218237,21.7714538 731,21.8331228 C731.299135,20.7762762 732.268973,20 733.421302,20 L755.433606,20 C756.824867,20 757.951798,21.1288723 757.951798,22.5204262 L757.951798,35.4624429 C757.951798,36.7250098 758.974784,37.7484327 760.236231,37.7484327 C761.210302,37.7484327 762,38.5388316 762,39.513296 L762,59.236549 C762,60.2015983 761.224882,60.9849358 760.263511,61 C760.263981,60.9905849 760.265392,60.9821113 760.265392,60.9722254" id="Fill-174" fill="#53BEED" mask="url(#mask-8)"></path>
                <path d="M757,55.3098623 C757,56.7958206 758.223627,58 759.732512,58 L760.935489,58 C762.075556,58 763,57.0903647 763,55.9679768 L763,45.0320232 C763,43.9096353 762.075556,43 760.935489,43 L759.732512,43 C758.223627,43 757,44.2041794 757,45.6901377 L757,55.3098623 Z" id="Fill-175" fill="#F8CD0D" mask="url(#mask-8)"></path>
                <path d="M695.778796,38.0484511 L722.050405,38.0484511 C723.084004,38.0484511 723.921758,37.2237681 723.921758,36.2062959 L723.921758,25.1263652 C723.921758,23.9521038 724.888953,23 726.081345,23 L732,23 L732,58 L727.736644,58 C727.736644,54.5444789 724.890878,51.7435884 721.381549,51.7435884 C717.871257,51.7435884 715.026453,54.5444789 715.026453,58 L709.085183,58 C709.085183,54.5444789 706.239898,51.7435884 702.730088,51.7435884 C699.220277,51.7435884 696.374992,54.5444789 696.374992,58 L695.778796,58 C693.691869,58 692,56.3345288 692,54.2801635 L692,41.7687612 C692,39.7139222 693.691869,38.0484511 695.778796,38.0484511" id="Fill-176" fill="#43506C" mask="url(#mask-8)"></path>
                <path d="M695.779232,38.1164371 L722.050524,38.1164371 C723.084111,38.1164371 723.921855,37.2880545 723.921855,36.2660178 L723.921855,25.1363803 C723.921855,23.9563752 724.889039,23 726.081417,23 L732,23 L732,25.5046561 L728.613897,25.5046561 C727.421519,25.5046561 726.454335,26.4610313 726.454335,27.6400848 L726.454335,38.7701981 C726.454335,39.791759 725.616591,40.6206175 724.583005,40.6206175 L698.311712,40.6206175 C696.22481,40.6206175 694.532961,42.2935603 694.532961,44.3566661 L694.532961,56.9246727 C694.532961,57.2986582 694.588779,57.6593211 694.692234,58 C693.135117,57.5379899 692,56.1105643 692,54.4209682 L692,41.8529616 C692,39.78938 693.691849,38.1164371 695.779232,38.1164371" id="Fill-177" fill="#4E5E84" mask="url(#mask-8)"></path>
                <polygon id="Fill-178" fill="#43506C" mask="url(#mask-8)" points="728 58 731 58 731 23 728 23"></polygon>
                <path d="M732,58 L727.736214,58 C727.736214,54.5500455 724.890963,51.7528106 721.381195,51.7528106 C717.871427,51.7528106 715.026658,54.5500455 715.026658,58 L709.084977,58 C709.084977,54.5500455 706.240208,51.7528106 702.73044,51.7528106 C699.220191,51.7528106 696.37494,54.5500455 696.37494,58 L695.779232,58 C693.691849,58 692,56.3365108 692,54.2851737 L692,45 L732,45 L732,58 Z" id="Fill-179" fill="#8CC6E0" mask="url(#mask-8)"></path>
                <path d="M733.624627,20 L733.998663,20 L733.998663,55.5992675 C733.998663,56.9912283 735.173225,58.1195779 736.6228,58.1195779 L740.787201,58.1195779 C740.933286,59.1886151 741.362717,60.1729202 742,61 L733.624627,61 C732.175052,61 731,59.8707089 731,58.4792188 L731,22.5203105 C731,21.1288204 732.175052,20 733.624627,20" id="Fill-180" fill="#3D8FCD" mask="url(#mask-8)"></path>
                <path d="M760.155392,59.0666979 L764,59.0666979 L764,60.2025254 C764,61.194996 763.176961,62 762.162255,62 L757.156373,62 L753.053431,62 L753,62 C753.604412,57.3943609 753.059804,59.6171115 760.155392,59.0666979" id="Fill-181" fill="#3D8FCD" mask="url(#mask-8)"></path>
                <path d="M759.088398,43 C759.037953,43.2053102 759.008167,43.4186997 759.008167,43.639218 L759.008167,53.3082821 C759.008167,54.8020087 760.232765,56.0134339 761.742253,56.0134339 L762.945232,56.0134339 C762.963488,56.0134339 762.981744,56.0105823 763,56.0105823 C762.970694,57.1136493 762.059813,58 760.937545,58 L759.734086,58 C758.224117,58 757,56.7890501 757,55.2953235 L757,45.6253089 C757,44.3525759 757.890704,43.2875293 759.088398,43" id="Fill-182" fill="#F2B21B" mask="url(#mask-8)"></path>
                <path d="M749.283081,29.818886 C749.283081,28.6367831 748.311427,27.6781477 747.112152,27.6781477 L739,27.6781477 L739,27.1402439 C739,25.9581411 739.972155,25 741.170928,25 L749.829072,25 C751.027344,25 752,25.9581411 752,27.1402439 L752,37.8597561 C752,39.0418589 751.027344,40 749.829072,40 L749.283081,40 L749.283081,29.818886 Z" id="Fill-183" fill="#43506C" mask="url(#mask-8)"></path>
                <path d="M698,55 C697.349398,55.8769912 696.974261,56.9030973 696.974261,58 L696.296276,58 C695.844469,58 695.409091,57.9433628 695,57.8393805 C695.592552,56.649115 696.652793,55.6526549 698,55" id="Fill-184" fill="#1FA7DF" mask="url(#mask-8)"></path>
                <path d="M729.808199,50.0458068 C729.808199,48.4494815 728.491675,47.1549209 726.867674,47.1549209 L692,47.1549209 L692,45 L732,45 L732,58 L729.808199,58 L729.808199,50.0458068 Z" id="Fill-185" fill="#1FA7DF" mask="url(#mask-8)"></path>
                <path d="M716,55 C715.36637,55.8769912 715.001246,56.9030973 715.001246,58 L713,58 C713.559431,56.7384956 714.628114,55.6818584 716,55" id="Fill-186" fill="#1FA7DF" mask="url(#mask-8)"></path>
                <path d="M739,58.0002414 C739,62.4179465 742.581463,66 746.999517,66 C751.418055,66 755,62.4179465 755,58.0002414 C755,53.5820535 751.418055,50 746.999517,50 C742.581463,50 739,53.5820535 739,58.0002414" id="Fill-187" fill="#4E5E84" mask="url(#mask-8)"></path>
                <path d="M743,58.5002433 C743,60.43309 744.566801,62 746.499513,62 C748.432712,62 750,60.43309 750,58.5002433 C750,56.56691 748.432712,55 746.499513,55 C744.566801,55 743,56.56691 743,58.5002433" id="Fill-188" fill="#78839E" mask="url(#mask-8)"></path>
                <path d="M712,58.0002414 C712,62.4179465 715.581837,66 719.999276,66 C724.418163,66 728,62.4179465 728,58.0002414 C728,53.5820535 724.418163,50 719.999276,50 C715.581837,50 712,53.5820535 712,58.0002414" id="Fill-189" fill="#4E5E84" mask="url(#mask-8)"></path>
                <path d="M717,58.5002433 C717,60.43309 718.567288,62 720.499513,62 C722.433199,62 724,60.43309 724,58.5002433 C724,56.56691 722.433199,55 720.499513,55 C718.567288,55 717,56.56691 717,58.5002433" id="Fill-190" fill="#78839E" mask="url(#mask-8)"></path>
                <path d="M695,58.0002414 C695,62.4179465 698.581837,66 702.999759,66 C707.418163,66 711,62.4179465 711,58.0002414 C711,53.5820535 707.418163,50 702.999759,50 C698.581837,50 695,53.5820535 695,58.0002414" id="Fill-191" fill="#4E5E84" mask="url(#mask-8)"></path>
                <path d="M699,58.5002433 C699,60.43309 700.566314,62 702.499513,62 C704.432712,62 706,60.43309 706,58.5002433 C706,56.56691 704.432712,55 702.499513,55 C700.566314,55 699,56.56691 699,58.5002433" id="Fill-192" fill="#78839E" mask="url(#mask-8)"></path>
            </g>
        </g>
    </g>
</svg>
