<?xml version="1.0" encoding="UTF-8" standalone="no"?>
<svg width="84px" height="84px" viewBox="0 0 84 84" version="1.1" xmlns="http://www.w3.org/2000/svg" xmlns:xlink="http://www.w3.org/1999/xlink">
    <!-- Generator: Sketch 47.1 (45422) - http://www.bohemiancoding.com/sketch -->
    <title>if_License-Agreement_1698500</title>
    <desc>Created with Sketch.</desc>
    <defs>
        <filter x="-1.2%" y="-1.2%" width="104.9%" height="104.9%" filterUnits="objectBoundingBox" id="filter-1">
            <feOffset dx="2" dy="2" in="SourceAlpha" result="shadowOffsetOuter1"></feOffset>
            <feColorMatrix values="0 0 0 0 0   0 0 0 0 0   0 0 0 0 0  0 0 0 0.5 0" type="matrix" in="shadowOffsetOuter1" result="shadowMatrixOuter1"></feColorMatrix>
            <feMerge>
                <feMergeNode in="shadowMatrixOuter1"></feMergeNode>
                <feMergeNode in="SourceGraphic"></feMergeNode>
            </feMerge>
        </filter>
        <linearGradient x1="29.5874619%" y1="0%" x2="72.9134909%" y2="100%" id="linearGradient-2">
            <stop stop-color="#4ED5F2" offset="0%"></stop>
            <stop stop-color="#26AAE1" offset="100%"></stop>
        </linearGradient>
    </defs>
    <g id="Page-1" stroke="none" stroke-width="1" fill="none" fill-rule="evenodd">
        <g id="OFFER_FINALIZED" transform="translate(-471.000000, -159.000000)" fill-rule="nonzero" fill="url(#linearGradient-2)">
            <g id="if_License-Agreement_1698500" filter="url(#filter-1)" transform="translate(471.000000, 159.000000)">
                <path d="M77.6473847,39.6010369 C82.3117954,36.7168014 84.7293038,33.8406805 77.0346224,31.3378289 C72.9271803,30.0008758 70.9373155,29.4013729 70.4767763,27.3152845 C70.4767763,27.3152845 68.9461607,24.0918609 71.2836874,19.7470065 C73.8908295,14.902296 74.5558378,11.194596 66.6483022,12.898976 C62.8391785,13.7195192 60.4861715,14.1034997 58.7581819,12.7499929 C58.7581819,12.7499929 55.6521223,11.1069589 55.2302839,6.18402406 C54.760392,0.694693667 53.2900851,-2.76956977 47.6175191,3.03071015 C44.9542609,5.75233003 43.2201437,7.36323038 41.113854,7.28338321 C41.113854,7.28338321 37.7149586,7.86373579 34.7511243,3.92460892 C31.4454332,-0.467634391 28.3664641,-2.61020002 26.6387971,5.34076008 C25.8054404,9.17050283 24.7279464,11.6856886 22.7887151,12.7097447 C22.7887151,12.7097447 20.4992418,14.8792506 15.8883671,13.1820115 C10.7476143,11.2887248 7.00589444,11.1647345 9.8291159,18.7914372 C10.9166076,21.7308516 11.5941937,23.7825343 11.2691072,25.4671147 C11.2691072,25.4671147 10.5221823,29.0683517 5.72070624,30.0992241 C0.367099175,31.2482443 -2.8669955,33.1457505 3.55443042,38.093029 C8.50264687,41.9071918 8.9889866,42.7274105 8.8738518,45.2773265 C8.8738518,45.2773265 9.10444391,47.7110422 6.34088614,50.9555636 C2.79009013,55.1244945 0.620911751,58.7082041 8.66486762,59.5449764 C14.8644091,60.1902454 14.1265143,60.89329 15.1753053,61.4385877 C15.1753053,61.4385877 17.5963612,63.2104807 16.4988718,68.0272772 C15.2756048,73.3968369 15.6203642,77.14868 22.7864575,73.3770374 C28.309703,70.4704058 28.5241698,70.9115127 30.5501553,71.3808582 C30.5501553,71.3808582 33.6558924,71.8803899 35.137487,76.5913727 C36.7896876,81.8444074 38.9772488,84.9006713 43.2527168,77.9922685 C45.1309944,74.9567779 46.4274703,73.0511571 48.28543,72.5035873 C48.28543,72.5035873 52.2619345,71.0627679 56.1452347,74.0865736 C60.4739162,77.4586557 64.0011693,78.7183584 63.6090014,70.5892028 C63.4313004,66.903899 63.4238827,64.5623646 64.7622845,63.0514355 C64.7622845,63.0514355 66.8440636,59.9571956 71.7332614,60.4148561 C77.1836204,60.9244498 80.8327809,60.0837825 76.1696601,53.4343962 C74.3752342,50.8744181 73.2003432,49.0658473 73.0855309,47.3549757 C73.0855309,47.3549757 73.4641535,42.1876307 77.6473847,39.6010369 Z M40.0547429,53.90504 L37.0106045,56.9690939 L19.6558874,39.5030131 L26.4304579,32.6848441 L37.010282,43.3330805 L55.2160936,25.3944083 L61.6684801,32.1525297 L40.0547429,53.90504 Z" id="Shape"></path>
            </g>
        </g>
    </g>
</svg>