<?xml version="1.0" encoding="UTF-8" standalone="no"?>
<svg width="29px" height="29px" viewBox="0 0 29 29" version="1.1" xmlns="http://www.w3.org/2000/svg" xmlns:xlink="http://www.w3.org/1999/xlink">
    <!-- Generator: Sketch 47.1 (45422) - http://www.bohemiancoding.com/sketch -->
    <title>if_License-Agreement_1698500</title>
    <desc>Created with Sketch.</desc>
    <defs></defs>
    <g id="Page-1" stroke="none" stroke-width="1" fill="none" fill-rule="evenodd">
        <g id="7_PAPERWORK_1" transform="translate(-807.000000, -43.000000)" fill-rule="nonzero" fill="#26AAE1">
            <g id="if_License-Agreement_1698500" transform="translate(807.000000, 43.000000)">
                <path d="M27.4606604,14.0052448 C29.1102691,12.9852103 29.9652416,11.9680456 27.2439518,11.0828907 C25.7913199,10.6100658 25.0875872,10.3980465 24.9247136,9.66028354 C24.9247136,9.66028354 24.3833983,8.52029226 25.2100846,6.98369743 C26.1321226,5.27032418 26.3673085,3.95906445 23.570741,4.56183297 C22.2236119,4.85202509 21.3914509,4.98782307 20.7803326,4.50914382 C20.7803326,4.50914382 19.6818481,3.92807083 19.5326614,2.1870329 C19.3664801,0.245684346 18.8464935,-0.979481992 16.8403421,1.07183652 C15.8984581,2.03436062 15.2851728,2.60406928 14.5402655,2.57583065 C14.5402655,2.57583065 13.3382171,2.78107729 12.2900318,1.38797145 C11.1209459,-0.165382895 10.0320422,-0.923119519 9.42103799,1.88880539 C9.12631429,3.24322661 8.74524932,4.13274352 8.05942362,4.49490971 C8.05942362,4.49490971 7.24973185,5.262174 5.61905665,4.66193089 C3.80098553,3.99235389 2.47769438,3.94850366 3.47615075,6.64575218 C3.86075149,7.68530117 4.10038558,8.41089626 3.98541596,9.00666252 C3.98541596,9.00666252 3.72125958,10.2802707 2.0231766,10.6448475 C0.129827757,11.0512083 -1.01393743,11.7222776 1.25705466,13.4719249 C3.00703365,14.8208361 3.17903185,15.1109135 3.13831344,16.012713 C3.13831344,16.012713 3.21986431,16.8734173 2.24250851,18.0208701 C0.986739193,19.4952481 0.219590741,20.7626576 3.0644044,21.0585892 C5.25692517,21.2867941 4.99596239,21.5354318 5.36687627,21.728281 C5.36687627,21.728281 6.22310336,22.3549261 5.83496685,24.0584273 C5.40234805,25.9574179 5.52427515,27.2842893 8.05862522,25.9504157 C10.0119681,24.9224606 10.0878161,25.0784618 10.8043232,25.2444499 C10.8043232,25.2444499 11.9026937,25.4211135 12.4266722,27.0871928 C13.0109871,28.9449734 13.7846368,30.0258472 15.2966925,27.5826315 C15.9609614,26.5091044 16.4194712,25.8351653 17.0765545,25.6415126 C17.0765545,25.6415126 18.4828793,25.1319545 19.8562415,26.2013492 C21.3871167,27.3939148 22.6345599,27.8394194 22.4958664,24.9644742 C22.4330209,23.661135 22.4303975,22.8330314 22.9037348,22.2986784 C22.9037348,22.2986784 23.6399737,21.204374 25.3690802,21.3662296 C27.2966462,21.5464518 28.587203,21.2491426 26.9380505,18.8975303 C26.3034365,17.9921723 25.8879263,17.3525558 25.8473219,16.7474914 C25.8473219,16.7474914 25.981225,14.9200157 27.4606604,14.0052448 Z M14.1657017,19.0639776 L13.0891162,20.1476064 L6.95147238,13.9705778 L9.34735706,11.5592741 L13.0890022,15.3251138 L19.5276428,8.98094929 L21.8095844,11.3710166 L14.1657017,19.0639776 Z" id="Shape"></path>
            </g>
        </g>
    </g>
</svg>