<?xml version="1.0" encoding="UTF-8" standalone="no"?>
<svg width="67px" height="34px" viewBox="0 0 67 34" version="1.1" xmlns="http://www.w3.org/2000/svg" xmlns:xlink="http://www.w3.org/1999/xlink">
    <!-- Generator: Sketch 47.1 (45422) - http://www.bohemiancoding.com/sketch -->
    <title>if_environmentalsvg-13_202585</title>
    <desc>Created with Sketch.</desc>
    <defs></defs>
    <g id="Page-1" stroke="none" stroke-width="1" fill="none" fill-rule="evenodd">
        <g id="9_CONGRATULATIONS" transform="translate(-746.000000, -470.000000)" fill-rule="nonzero" fill="#26AAE1">
            <g id="if_environmentalsvg-13_202585" transform="translate(746.000000, 470.000000)">
                <path d="M65.7164025,21.7142204 C65.7164025,15.7221901 59.7316311,12.5272395 55.2454993,12.3271057 C51.3722805,-2.85310402 26.2917818,-5.95218212 22.8259483,14.1247148 C18.7472018,17.12073 18.0046106,19.9166113 18.0046106,22.9126265 C15.9370996,23.8150263 17.341539,29.6536606 19.6781934,30 C19.6781934,30 19.7601598,30 19.8776043,30 C19.6794168,29.2665755 19.5631958,28.4995956 19.5631958,27.7062508 C19.5631958,22.7508417 23.6786437,18.1190022 28.7385404,18.1190022 C33.7984371,18.1190022 37.913885,22.7508417 37.913885,27.7062508 C37.913885,28.4995956 37.797664,29.2270281 37.5994765,29.9604526 C40.2835707,29.9604526 43.0496312,29.9604526 45.7410656,29.9604526 C45.5428782,29.2270281 45.4266572,28.4995956 45.4266572,27.7062508 C45.4266572,22.7508417 49.3696086,18.1190022 54.4282819,18.1190022 C59.4869552,18.1190022 63.7773464,22.7508417 63.7773464,27.7062508 C63.7773464,28.4408737 63.6770293,29.1527269 63.5045328,29.8370168 C66.9397818,28.9046569 68.1631611,21.7142204 65.7164025,21.7142204 Z M30.0524497,12.1413527 C30.59196,8.47183335 33.52073,3.59551905 38.6992945,3.59551905 C43.735947,3.59551905 49.3879593,6.5280187 51.3661636,12.1485432 C50.8645781,12.1485432 30.6200977,12.1413527 30.0524497,12.1413527 Z" id="Shape"></path>
                <path d="M29,22 C25.6856,22 23,24.6856 23,28 C23,31.3156 25.6856,34 29,34 C32.3144,34 35,31.3156 35,28 C35,24.6856 32.3144,22 29,22 Z M29,30.934 C27.3836,30.934 26.066,29.6164 26.066,28 C26.066,26.3836 27.3848,25.0684 29,25.0684 C30.6152,25.0684 31.934,26.3836 31.934,28 C31.934,29.6164 30.6164,30.934 29,30.934 Z" id="Shape"></path>
                <path d="M55,22 C51.6856,22 49,24.6856 49,28 C49,31.3156 51.6856,34 55,34 C58.3144,34 61,31.3156 61,28 C61,24.6856 58.3132,22 55,22 Z M55,30.934 C53.3836,30.934 52.066,29.6164 52.066,28 C52.066,26.3836 53.3848,25.0684 55,25.0684 C56.6152,25.0684 57.934,26.3836 57.934,28 C57.934,29.6164 56.6152,30.934 55,30.934 Z" id="Shape"></path>
                <path d="M12.49875,22.9988 C12.4275,22.9988 12.36125,23.0132 12.29125,23.0192 C12.41375,22.6076 12.49875,22.1816 12.49875,21.7328 C12.49875,19.118 10.29125,17 7.56875,17 C5.0275,17 2.95875,18.8528 2.6925,21.2252 C1.1525,21.566 0,22.8848 0,24.4676 C0,26.3072 1.555,27.8 3.47125,27.8 C4.23,27.8 4.9275,27.56 5.49875,27.1628 C6.14375,28.2548 7.34875,29 8.75,29 C9.92875,29 10.9675,28.4672 11.655,27.65 C11.92,27.7412 12.2025,27.8 12.5,27.8 C13.88,27.8 15,26.7248 15,25.4 C15,24.0752 13.87875,22.9988 12.49875,22.9988 Z" id="Shape"></path>
            </g>
        </g>
    </g>
</svg>