<?xml version="1.0" encoding="UTF-8" standalone="no"?>
<svg width="20px" height="20px" viewBox="0 0 20 20" version="1.1" xmlns="http://www.w3.org/2000/svg" xmlns:xlink="http://www.w3.org/1999/xlink">
    <!-- Generator: Sketch 47.1 (45422) - http://www.bohemiancoding.com/sketch -->
    <title>if_user_134077 (2)</title>
    <desc>Created with Sketch.</desc>
    <defs></defs>
    <g id="Page-1" stroke="none" stroke-width="1" fill="none" fill-rule="evenodd">
        <g id="7_PAPERWORK_1" transform="translate(-189.000000, -48.000000)" fill="#FFFFFF">
            <g id="if_user_134077-(2)" transform="translate(189.000000, 48.000000)">
                <path d="M1.02085846,15.3333333 L7.00479539,12.1117976 C7.89679621,12.6401883 8.9158895,12.9396881 9.99911741,12.9396881 L9.99911741,12.9426302 L10.0002942,12.9426302 L10.001471,12.9426302 L10.001471,12.9396881 C11.0846989,12.9390997 12.1032038,12.6401883 12.9952046,12.1117976 L18.9791415,15.3333333 C19.6246065,15.6816711 20,16.3100912 20,17.0426596 L20,18.70609 C20,19.4186525 19.4186696,20 18.7055397,20 L1.2944603,20 C0.581918743,20 0,19.4186525 0,18.70609 L0,17.0426596 C0,16.3100912 0.375393487,15.6816711 1.02085846,15.3333333 L1.02085846,15.3333333 Z M10.001471,0 L10.001471,0.00294204178 L10.0008826,0.00294204178 L9.99911741,0.00294204178 L9.99911741,0 C8.57991821,0.00117681671 7.29075343,0.650191233 6.35403489,1.69991174 C5.40142979,2.7672845 4.81127357,4.24595469 4.81127357,5.88290674 L4.81362714,5.88290674 L4.81362714,5.88408355 L4.81362714,5.88643719 L4.81127357,5.88643719 C4.81127357,7.52280082 5.40142979,9.00088261 6.3534465,10.0682554 C7.25839193,11.0809061 8.49107117,11.7222713 9.85260804,11.7658135 C9.89438381,11.7669903 9.93674796,11.7681671 9.97911212,11.7681671 L9.98146568,11.7681671 L9.98381925,11.7681671 L9.98617281,11.7681671 L9.98793798,11.7681671 L9.99029155,11.7681671 L9.99264511,11.7681671 L9.99499868,11.7681671 L9.99735224,11.7681671 L9.9997058,11.7681671 L9.9997058,11.7658135 L9.9997058,11.7658135 L10.0008826,11.7658135 L10.0020594,11.7658135 L10.0020594,11.7658135 L10.0020594,11.7681671 L10.0038245,11.7681671 L10.0061781,11.7681671 L10.0085317,11.7681671 L10.0108852,11.7681671 L10.0132388,11.7681671 L10.0155924,11.7681671 L10.0179459,11.7681671 L10.0202995,11.7681671 L10.0220647,11.7681671 C10.0644288,11.7681671 10.106793,11.7669903 10.1485687,11.7658135 C11.5095172,11.7216828 12.7421965,11.082083 13.6465535,10.0682554 C14.5991586,9.00088261 15.1893148,7.52162401 15.1893148,5.88526037 L15.1869613,5.88526037 L15.1869613,5.88408355 L15.1869613,5.88172992 L15.1893148,5.88172992 C15.1887264,4.24771992 14.5985702,2.76846131 13.6447883,1.70050015 L13.6459651,1.69991174 C12.7092466,0.650191233 11.4200818,0 10.001471,0 Z" id="Shape"></path>
            </g>
        </g>
    </g>
</svg>
