<?xml version="1.0" encoding="UTF-8" standalone="no"?>
<svg width="25px" height="20px" viewBox="0 0 25 20" version="1.1" xmlns="http://www.w3.org/2000/svg" xmlns:xlink="http://www.w3.org/1999/xlink">
    <!-- Generator: Sketch 47.1 (45422) - http://www.bohemiancoding.com/sketch -->
    <title>if_car_423286</title>
    <desc>Created with Sketch.</desc>
    <defs></defs>
    <g id="Page-1" stroke="none" stroke-width="1" fill="none" fill-rule="evenodd">
        <g id="7_PAPERWORK_1" transform="translate(-349.000000, -48.000000)" fill="#26AAE1">
            <g id="if_car_423286" transform="translate(349.000000, 48.000000)">
                <path d="M23.3444896,7.63519439 C24.3126942,7.98596901 25,8.89798305 25,9.95615317 L25,14.8553055 C25,15.9134756 24.1453502,16.7787197 23.0755439,16.8313359 L23.0755439,18.5150541 C23.0755439,19.3335282 22.3942147,20 21.5574946,20 L20.8462826,20 C20.0095625,20 19.3282333,19.3335282 19.3282333,18.5150541 L19.3282333,16.8371821 L5.57614153,16.8371821 L5.57614153,18.5150541 C5.57614153,19.3335282 4.89481234,20 4.05809228,20 L3.34688023,20 C2.51016017,20 1.82883098,19.3335282 1.82883098,18.5150541 L1.82883098,16.8254896 C0.806837198,16.7319497 0,15.8783981 0,14.8553055 L0,9.95615317 C0,8.8921368 0.693282333,7.98596901 1.6555104,7.63519439 L4.08199857,2.15141771 C4.08199857,2.15141771 7.2794645,0.0701549255 12.0487688,0 L12.0487688,0 L12.2997848,0 L12.479082,0 L12.520918,0 L12.7002152,0 L12.9512312,0 L12.9512312,0 C17.7205355,0.0701549255 20.9180014,2.15141771 20.9180014,2.15141771 L23.3444896,7.63519439 Z M20.6490557,10.4004677 C21.7248386,10.4004677 22.5974181,11.2540193 22.5974181,12.3063432 C22.5974181,13.3586671 21.7248386,14.2122186 20.6490557,14.2122186 C19.5732728,14.2122186 18.7006933,13.3586671 18.7006933,12.3063432 C18.7006933,11.2540193 19.5732728,10.4004677 20.6490557,10.4004677 Z M4.32703801,10.4004677 C5.40282094,10.4004677 6.27540043,11.2540193 6.27540043,12.3063432 C6.27540043,13.3586671 5.40282094,14.2122186 4.32703801,14.2122186 C3.25125508,14.2122186 2.37867559,13.3586671 2.37867559,12.3063432 C2.37867559,11.2540193 3.25125508,10.4004677 4.32703801,10.4004677 Z M20.8462826,7.3838059 L16.2024863,7.3838059 L10.8295482,7.3838059 L4.159694,7.3838059 L5.58809467,3.11604794 C6.197705,1.29786612 18.8202247,1.29786612 19.4238585,3.11604794 L20.8522591,7.3838059 L20.8462826,7.3838059 Z" id="Shape"></path>
            </g>
        </g>
    </g>
</svg>