<?xml version="1.0" encoding="UTF-8" standalone="no"?>
<svg width="33px" height="33px" viewBox="0 0 33 33" version="1.1" xmlns="http://www.w3.org/2000/svg" xmlns:xlink="http://www.w3.org/1999/xlink">
    <!-- Generator: Sketch 47.1 (45422) - http://www.bohemiancoding.com/sketch -->
    <title>Group</title>
    <desc>Created with Sketch.</desc>
    <defs></defs>
    <g id="Page-1" stroke="none" stroke-width="1" fill="none" fill-rule="evenodd">
        <g id="7_PAPERWORK_2" transform="translate(-144.000000, -1298.000000)">
            <g id="Group" transform="translate(144.000000, 1298.000000)">
                <circle id="Oval" fill="#B8CDD5" cx="16.5" cy="16.5" r="16.5"></circle>
                <path d="M16.4934749,7.00008933 C16.4983932,6.99995842 16.5033116,6.99997712 16.5082486,7.00010803 C16.9803491,7.00235212 17.4091031,7.19611064 17.7202274,7.5072169 C18.0324361,7.81944463 18.2262342,8.251336 18.2262485,8.72742269 L18.2274079,8.72742269 L18.2274079,14.7725918 L24.272577,14.7725918 C24.7479132,14.7725918 25.179863,14.9668549 25.4927828,15.2797766 C25.8042809,15.5912563 25.9981532,16.020699 25.9999107,16.4934749 C26.0000416,16.4983932 26.0000229,16.5033116 25.999892,16.5082486 C25.9976479,16.9803491 25.8038894,17.4091031 25.4927831,17.7202274 C25.1805554,18.0324361 24.748664,18.2262342 24.2725773,18.2262485 L24.2725773,18.2274079 L18.2274082,18.2274079 L18.2274082,24.272577 C18.2274082,24.7479132 18.0331451,25.179863 17.7202234,25.4927828 C17.4087437,25.8042809 16.979301,25.9981532 16.5065251,25.9999107 C16.5016068,26.0000416 16.4966884,26.0000229 16.4917514,25.999892 C16.0196509,25.9976479 15.5908969,25.8038894 15.2797726,25.4927831 C14.9675639,25.1805554 14.7737658,24.748664 14.7737515,24.2725773 L14.7725921,24.2725773 L14.7725921,18.2274082 L8.72742299,18.2274082 C8.2520868,18.2274082 7.82013701,18.0331451 7.5072172,17.7202234 C7.19571907,17.4087437 7.00184682,16.979301 7.00008933,16.5065251 C6.99995842,16.5016068 6.99997712,16.4966884 7.00010803,16.4917514 C7.00235212,16.0196509 7.19611064,15.5908969 7.5072169,15.2797726 C7.81944463,14.9675639 8.251336,14.7737658 8.72742269,14.7737515 L8.72742269,14.7725921 L14.7725918,14.7725921 L14.7725918,8.72742299 C14.7725918,8.2520868 14.9668549,7.82013701 15.2797766,7.5072172 C15.5912563,7.19571907 16.020699,7.00184682 16.4934749,7.00008933 Z" id="Shape" fill="#FFFFFF" fill-rule="nonzero"></path>
            </g>
        </g>
    </g>
</svg>