<?xml version="1.0" encoding="UTF-8" standalone="no"?>
<svg width="45px" height="38px" viewBox="0 0 45 38" version="1.1" xmlns="http://www.w3.org/2000/svg" xmlns:xlink="http://www.w3.org/1999/xlink">
    <!-- Generator: Sketch 47.1 (45422) - http://www.bohemiancoding.com/sketch -->
    <title>if_6_2360671</title>
    <desc>Created with Sketch.</desc>
    <defs></defs>
    <g id="Page-1" stroke="none" stroke-width="1" fill="none" fill-rule="evenodd">
        <g id="4_REPORT/OFFER" transform="translate(-61.000000, -574.000000)" fill-rule="nonzero" fill="#253151">
            <g id="if_6_2360671" transform="translate(82.500000, 595.000000) rotate(229.000000) translate(-82.500000, -595.000000) translate(59.000000, 580.000000)">
                <path d="M18.538493,16.5856116 L18.1555156,15.7717153 C17.8019132,15.0183413 16.9144191,14.7019911 16.169394,15.059556 L16.169394,15.059556 C15.6171428,15.3280081 14.9745633,15.2192163 14.5232889,14.8118968 L14.5071326,14.8029855 C14.0558581,14.3956661 13.884014,13.7481135 14.0892723,13.1766781 L14.0914754,13.1350921 C14.3587885,12.3549844 13.9644283,11.4980169 13.1925984,11.2280796 L12.3429247,10.919898 C11.5714621,10.6495894 10.7243587,11.0483689 10.4570456,11.8288479 L10.438319,11.8615226 C10.2330607,12.4333293 9.71312206,12.8209697 9.11130043,12.8514166 C9.08596444,12.8581 9.07017534,12.8491888 9.04483935,12.8558722 C8.46578339,12.8852052 7.92601659,12.5703402 7.68660981,12.0416046 L7.68660981,12.0416046 C7.31942151,11.2369908 6.36399754,10.9028181 5.58445677,11.2830324 L4.95032257,11.5830453 C4.15462551,11.9543484 3.82378885,12.920479 4.20015686,13.7087554 L4.20015686,13.7087554 C4.44286833,14.2319214 4.35400876,14.8497697 3.95744539,15.2953334 L3.93284377,15.3384046 C3.5300382,15.794736 2.88268522,15.942886 2.29775425,15.7453527 L2.29775425,15.7453527 C1.49104155,15.4620485 0.634758423,15.876794 0.352023429,16.6840069 L0.0927884856,17.4254991 C-0.202063723,18.2546189 0.231218476,19.1550289 1.03242336,19.4353627 L1.03242336,19.4353627 C1.59789335,19.6429211 1.96214414,20.1649732 1.99776141,20.7761381 C1.99776141,20.7761381 1.99225358,20.7861633 2.00767549,20.7961884 C2.03815212,21.4043829 1.71429204,21.971734 1.16240802,22.2401861 L1.10586102,22.2646921 C0.360835948,22.6218856 0.0479915125,23.5200678 0.401226661,24.2734417 L0.784204063,25.087338 C1.13743921,25.840712 2.01979271,26.1540918 2.7703256,25.7998686 L2.79933348,25.7738774 C3.35672532,25.5083957 3.99967205,25.6171875 4.46159493,26.0304479 L4.47775122,26.0393591 C4.91286936,26.437396 5.08324473,27.0622991 4.89414276,27.6433884 C4.89414276,27.6433884 4.98447108,29.3450704 5.77208999,29.6246616 L6.63057625,29.9168771 C7.39689824,30.183844 8.24950948,29.7884062 8.51645538,29.0079272 L8.5252679,28.9915899 C8.73052616,28.4201544 9.2600117,28.0158054 9.85228643,28.0016959 C9.85228643,28.0016959 9.86807553,28.0106071 9.87725524,27.9950124 C10.4765065,27.9556543 11.0441797,28.3083922 11.3001099,28.8464104 L11.3001099,28.8464104 C11.6537123,29.5997843 12.5518548,29.9224467 13.3001846,29.5596836 L14.1021239,29.1776127 C14.8471489,28.8200478 15.1599934,27.9226083 14.7972113,27.1852004 L14.7972113,27.1852004 C14.5346717,26.6215623 14.644461,25.9803219 15.0421259,25.5206487 L15.0608525,25.4879741 C15.4632909,25.0320139 16.0944876,24.8742101 16.6691373,25.0654312 L16.6849264,25.0743424 C17.4567562,25.3446511 18.30643,24.940302 18.5708055,24.1653925 L18.8810797,23.3095389 C19.1428849,22.5260895 18.7514622,21.664295 17.977062,21.3995559 L17.977062,21.3995559 C17.4115921,21.1923688 17.0205365,20.6543507 16.9819817,20.048384 C16.9907943,20.032418 16.9753723,20.0227641 16.9841849,20.0064268 C16.9482004,19.3952619 17.2783027,18.8171431 17.8356945,18.5516614 L17.8356945,18.5516614 C18.5785165,18.2360538 18.8913609,17.3382429 18.5377586,16.584869 L18.538493,16.584869 L18.538493,16.5856116 Z M11.4521259,24.5998171 C9.17702714,25.6918194 6.47305246,24.7268028 5.39021415,22.4314072 C4.31545399,20.1337838 5.27014358,17.3998792 7.54010168,16.3045352 C9.8155676,15.2121615 12.5158704,16.1831191 13.5990759,18.4785147 C14.6885236,20.7627712 13.7191465,23.5096713 11.4521259,24.5998171 L11.4521259,24.5998171 Z M45.028926,6.74793669 L44.3077682,5.67227169 C43.6413214,4.67643684 42.3080607,4.42098033 41.3232616,5.0945241 L41.3232616,5.0945241 C40.5940257,5.59875368 39.6543908,5.58538677 38.9236861,5.10417798 L38.8990844,5.09489541 C38.1680125,4.61368663 37.7839336,3.7288714 37.9528402,2.86856218 L37.9469652,2.80878239 C38.1595672,1.6376925 37.4130734,0.503732915 36.2549615,0.288748436 L34.9771462,0.0366336498 C33.8190343,-0.178722132 32.6976412,0.576508317 32.4850391,1.74759821 L32.4655782,1.79809543 C32.2963044,2.65840465 31.6383029,3.32526496 30.7875276,3.50163392 C30.7530119,3.51685735 30.7284103,3.50757477 30.6935274,3.52242689 C29.8743303,3.6917411 29.037141,3.36202397 28.5818275,2.66100377 L28.5818275,2.66100377 C27.8852713,1.59499265 26.4510337,1.32913965 25.4218049,2.04315545 L24.5827796,2.61050655 C23.528582,3.31486848 23.265308,4.76517828 23.9717783,5.80594079 L23.9717783,5.80594079 C24.4303965,6.49842102 24.4366387,7.39845967 23.967372,8.12064415 L23.9416689,8.18785 C23.4657928,8.92711442 22.5753612,9.28096625 21.6985155,9.12836068 L21.6985155,9.12836068 C20.4878957,8.90223711 19.3565885,9.68234487 19.127463,10.8950207 L18.9174313,12.0093012 C18.6758214,13.2557656 19.4873075,14.4443068 20.6898492,14.6674599 L20.6898492,14.6674599 C21.5402574,14.8386306 22.1721884,15.5025205 22.3550482,16.3661715 C22.3550482,16.3661715 22.3495404,16.3817662 22.3737748,16.392534 C22.5481892,17.2528432 22.2089073,18.1324602 21.4800385,18.6370611 L21.4043977,18.6845879 C20.4192315,19.3581316 20.1669731,20.7070757 20.8330527,21.7029105 L21.5545777,22.7785755 C22.2206573,23.7744104 23.5458399,24.0268965 24.5394514,23.3563231 L24.5754359,23.3128807 C25.31275,22.8116215 26.2527521,22.8249884 26.9999803,23.3125094 L27.0245819,23.3217919 C27.730685,23.7929755 28.1081546,24.6466013 27.9638496,25.5161931 C27.9638496,25.5161931 28.4591866,27.9218657 29.6422673,28.1468754 L30.9288951,28.3744841 C32.0789289,28.5861269 33.2087673,27.8346095 33.4210021,26.6635196 L33.4301818,26.638271 C33.5994556,25.7783331 34.267004,25.0858528 35.1082324,24.9347325 C35.1082324,24.9347325 35.132834,24.9440151 35.1423809,24.9195091 C35.9880156,24.7316297 36.8733066,25.1092449 37.3539561,25.8195477 L37.3539561,25.8195477 C38.0200356,26.8153825 39.370187,27.0775225 40.358658,26.3954388 L41.4190978,25.6743682 C42.404264,25.0008244 42.6568896,23.6522517 41.9805287,22.6812941 L41.9805287,22.6812941 C41.4851917,21.9357176 41.5035511,20.9974347 41.9709818,20.2548286 L41.9904428,20.2043313 C42.4659516,19.4654382 43.3317817,19.1019325 44.1917367,19.2478546 L44.2163383,19.2571372 C45.3744502,19.472493 46.4987808,18.7087226 46.7084453,17.5461726 L46.9662115,16.257751 C47.1707354,15.0836907 46.4271791,13.9411911 45.2661296,13.7343753 L45.2661296,13.7343753 C44.4157215,13.5635759 43.7422982,12.8829774 43.5565009,12.0278664 C43.5656806,12.0029891 43.5414462,11.9929639 43.5506259,11.9677153 C43.3677661,11.1044356 43.7136575,10.2073674 44.4506044,9.70685087 L44.4506044,9.70685087 C45.4412785,9.09308689 45.6935368,7.74488544 45.0274572,6.74867929 L45.028926,6.74793669 Z M36.6551967,19.7320338 C33.6475573,21.7897955 29.5857203,21.0096877 27.547458,17.9765129 C25.5205786,14.9381399 26.2920412,10.8307853 29.2916025,8.76968192 C32.299609,6.71154899 36.3581414,7.50019671 38.3964037,10.5333715 C40.4412753,13.5498377 39.6514533,17.6790991 36.6551967,19.7320338 L36.6551967,19.7320338 Z" id="icon_5_"></path>
            </g>
        </g>
    </g>
</svg>