<?xml version='1.0' encoding='iso-8859-1'?>
<!DOCTYPE svg PUBLIC '-//W3C//DTD SVG 1.1//EN' 'http://www.w3.org/Graphics/SVG/1.1/DTD/svg11.dtd'>
<svg version="1.1" xmlns="http://www.w3.org/2000/svg" viewBox="0 0 297.006 297.006" xmlns:xlink="http://www.w3.org/1999/xlink" enable-background="new 0 0 297.006 297.006">
  <path d="m268.003,204.856c-22.726,0-41.214-26.146-41.214-58.285 0-32.139 18.488-58.286 41.214-58.286 3.62,0 6.957-1.956 8.726-5.115 1.768-3.159 1.691-7.026-0.201-10.112l-27.071-44.143c-1.601-2.61-4.31-4.344-7.351-4.703-3.042-0.362-6.078,0.694-8.245,2.859-9.414,9.414-24.73,9.412-34.143,0-4.56-4.559-7.071-10.623-7.072-17.072-0.001-5.522-4.478-9.999-10-9.999h-68.286c-5.522,0-9.999,4.477-10,9.999-0.001,6.449-2.513,12.513-7.072,17.072-9.412,9.414-24.73,9.412-34.143,0-2.167-2.165-5.209-3.221-8.245-2.859-3.041,0.359-5.75,2.093-7.351,4.703l-27.07,44.143c-1.893,3.086-1.97,6.953-0.201,10.112 1.768,3.159 5.105,5.115 8.726,5.115 22.726,0 41.214,26.147 41.214,58.286 0,32.139-18.488,58.285-41.214,58.285-3.41,0-6.585,1.738-8.423,4.61-1.839,2.872-2.086,6.484-0.657,9.58l17.071,36.992c1.861,4.032 6.158,6.359 10.549,5.701 0.709-0.104 71.307-10.089 91.422,29.771 1.685,3.339 5.092,5.459 8.831,5.495 0.032,0 0.064,0 0.097,0 3.702,0 7.106-2.047 8.839-5.323 21.623-40.866 92.279-32.842 92.99-32.756 4.199,0.513 8.263-1.672 10.154-5.455l17.071-34.144c1.55-3.1 1.384-6.781-0.438-9.729-1.822-2.947-5.041-4.742-8.507-4.742zm-112.5,27.073c0,3.866-3.134,7-7,7-3.866,0-7-3.134-7-7v-4.5c0-3.866 3.134-7 7-7 3.866,0 7,3.134 7,7v4.5zm0-33.518c0,3.866-3.134,7-7,7-3.866,0-7-3.134-7-7v-8.425c0-3.866 3.134-7 7-7 3.866,0 7,3.134 7,7v8.425zm0-37.442c0,3.866-3.134,7-7,7-3.866,0-7-3.134-7-7v-8.425c0-3.866 3.134-7 7-7 3.866,0 7,3.134 7,7v8.425zm0-37.443c0,3.866-3.134,7-7,7-3.866,0-7-3.134-7-7v-8.424c0-3.866 3.134-7 7-7 3.866,0 7,3.134 7,7v8.424zm0-37.441c0,3.866-3.134,7-7,7-3.866,0-7-3.134-7-7v-8.425c0-3.866 3.134-7 7-7 3.866,0 7,3.134 7,7v8.425zm0-37.442c0,3.866-3.134,7-7,7-3.866,0-7-3.134-7-7v-4.5c0-3.866 3.134-7 7-7 3.866,0 7,3.134 7,7v4.5z"/>
</svg>
