<?xml version="1.0" encoding="UTF-8" standalone="no"?>
<svg width="40px" height="40px" viewBox="0 0 40 40" version="1.1" xmlns="http://www.w3.org/2000/svg" xmlns:xlink="http://www.w3.org/1999/xlink">
    <!-- Generator: Sketch 47.1 (45422) - http://www.bohemiancoding.com/sketch -->
    <title>Layer_2</title>
    <desc>Created with Sketch.</desc>
    <defs></defs>
    <g id="Page-1" stroke="none" stroke-width="1" fill="none" fill-rule="evenodd">
        <g id="9_CONGRATULATIONS" transform="translate(-493.000000, -459.000000)" fill-rule="nonzero" fill="#26AAE1">
            <g id="Layer_2" transform="translate(493.000000, 459.000000)">
                <path d="M30.9615385,22.6666667 L35,22.6666667 L35,18.6666667 C35,17.2 33.7884615,16 32.3076923,16 L28.3365385,16 C26.3173077,19.9333333 22.2115385,22.6666667 17.5,22.6666667 C12.7884615,22.6666667 8.68269231,19.9333333 6.66346154,16 L2.69230769,16 C1.21153846,16 0,17.2 0,18.6666667 L0,37.3333333 C0,38.8 1.21153846,40 2.69230769,40 L32.3076923,40 C33.7884615,40 35,38.8 35,37.3333333 L35,33.3333333 L30.9615385,33.3333333 C29.4807692,33.3333333 28.2692308,32.1333333 28.2692308,30.6666667 L28.2692308,25.3333333 C28.2692308,23.8666667 29.4807692,22.6666667 30.9615385,22.6666667 Z" id="Shape"></path>
                <path d="M37.25,24 L30.375,24 C29.61875,24 29,24.6 29,25.3333333 L29,30.6666667 C29,31.4 29.61875,32 30.375,32 L37.25,32 C38.7625,32 40,30.8 40,29.3333333 L40,26.6666667 C40,25.2 38.7625,24 37.25,24 Z M31.75,29.3333333 C30.99375,29.3333333 30.375,28.7333333 30.375,28 C30.375,27.2666667 30.99375,26.6666667 31.75,26.6666667 C32.50625,26.6666667 33.125,27.2666667 33.125,28 C33.125,28.7333333 32.50625,29.3333333 31.75,29.3333333 Z" id="Shape"></path>
                <g id="Group" transform="translate(7.000000, 0.000000)">
                    <path d="M10.5,0 C4.725,0 0,4.725 0,10.5 C0,16.275 4.725,21 10.5,21 C16.275,21 21,16.275 21,10.5 C21,4.725 16.275,0 10.5,0 Z M14.4375,13.125 C14.4375,14.9625 12.99375,16.40625 11.15625,16.40625 L11.15625,17.71875 L9.84375,17.71875 L9.84375,16.40625 C8.00625,16.40625 6.5625,14.9625 6.5625,13.125 L7.875,13.125 C7.875,14.240625 8.728125,15.09375 9.84375,15.09375 L9.84375,11.15625 C8.00625,11.15625 6.5625,9.7125 6.5625,7.875 C6.5625,6.0375 8.00625,4.59375 9.84375,4.59375 L9.84375,3.28125 L11.15625,3.28125 L11.15625,4.59375 C12.99375,4.59375 14.4375,6.0375 14.4375,7.875 L13.125,7.875 C13.125,6.759375 12.271875,5.90625 11.15625,5.90625 L11.15625,9.84375 C12.99375,9.84375 14.4375,11.2875 14.4375,13.125 Z" id="Shape"></path>
                    <path d="M11.15625,15.09375 C12.271875,15.09375 13.125,14.240625 13.125,13.125 C13.125,12.009375 12.271875,11.15625 11.15625,11.15625 L11.15625,15.09375 Z" id="Shape"></path>
                    <path d="M7.875,7.875 C7.875,8.990625 8.728125,9.84375 9.84375,9.84375 L9.84375,5.90625 C8.728125,5.90625 7.875,6.759375 7.875,7.875 Z" id="Shape"></path>
                </g>
            </g>
        </g>
    </g>
</svg>