<?xml version="1.0" encoding="UTF-8" standalone="no"?>
<svg width="30px" height="30px" viewBox="0 0 30 30" version="1.1" xmlns="http://www.w3.org/2000/svg" xmlns:xlink="http://www.w3.org/1999/xlink">
    <!-- Generator: Sketch 47.1 (45422) - http://www.bohemiancoding.com/sketch -->
    <title>if_exclamation-point-2_177560</title>
    <desc>Created with Sketch.</desc>
    <defs></defs>
    <g id="Page-1" stroke="none" stroke-width="1" fill="none" fill-rule="evenodd">
        <g id="7_PAPERWORK_4" transform="translate(-131.000000, -225.000000)" fill-rule="nonzero" fill="#242846">
            <g id="if_exclamation-point-2_177560" transform="translate(131.000000, 225.000000)">
                <path d="M15,0 C6.71625,0 0,6.71625 0,15 C0,23.28375 6.71625,30 15,30 C23.28375,30 30,23.28375 30,15 C30,6.71625 23.28375,0 15,0 Z M16.875,23.4375 C16.875,23.955 16.455,24.375 15.9375,24.375 L14.0625,24.375 C13.545,24.375 13.125,23.955 13.125,23.4375 L13.125,21.5625 C13.125,21.045 13.545,20.625 14.0625,20.625 L15.9375,20.625 C16.455,20.625 16.875,21.045 16.875,21.5625 L16.875,23.4375 Z M16.875,17.8125 C16.875,18.33 16.455,18.75 15.9375,18.75 L14.0625,18.75 C13.545,18.75 13.125,18.33 13.125,17.8125 L13.125,6.5625 C13.125,6.045 13.545,5.625 14.0625,5.625 L15.9375,5.625 C16.455,5.625 16.875,6.045 16.875,6.5625 L16.875,17.8125 Z" id="Exclamation_Point_2_x2C__Caution_2_x2C__Warning_2"></path>
            </g>
        </g>
    </g>
</svg>