<?xml version="1.0" encoding="UTF-8" standalone="no"?>
<svg width="22px" height="22px" viewBox="0 0 22 22" version="1.1" xmlns="http://www.w3.org/2000/svg" xmlns:xlink="http://www.w3.org/1999/xlink">
    <!-- Generator: Sketch 47.1 (45422) - http://www.bohemiancoding.com/sketch -->
    <title>if_Ecommerce_Icons_Rose_Color-77_818384</title>
    <desc>Created with Sketch.</desc>
    <defs></defs>
    <g id="Page-1" stroke="none" stroke-width="1" fill="none" fill-rule="evenodd">
        <g id="7_PAPERWORK_1" transform="translate(-490.000000, -48.000000)" fill-rule="nonzero" fill="#26AAE1">
            <g id="if_Ecommerce_Icons_Rose_Color-77_818384" transform="translate(490.000000, 48.000000)">
                <path d="M11,0 C4.93346619,0 0,4.93346619 0,11 C0,17.0665338 4.93346619,22 11,22 C17.0665338,22 22,17.0665338 22,11 C22,4.93346619 17.0665338,0 11,0 Z M11.7740428,16.1670348 C11.6694519,16.1809451 11.5648611,16.2018985 11.4254066,16.2228518 L11.4254066,17.7638942 L10.267864,17.7638942 L10.267864,16.1670348 C9.113843,15.9229895 7.95277884,15.7312396 7.15091561,14.716585 C7.63900627,14.2667915 8.10623159,13.8379514 8.55945864,13.419588 C9.58450186,14.3434739 10.7699529,14.4515863 12.0180881,14.1622007 C12.7014502,14.0053144 12.9211087,13.0430433 12.4259748,12.5374328 C12.1609761,12.2654789 11.8402484,12.1121142 11.4741804,12.017912 C10.5049542,11.7564349 9.55315982,11.4496174 8.67795973,10.9405734 C8.17243725,10.6477542 7.70521193,10.2885533 7.60062108,9.67148483 C7.4716433,8.90096363 7.48907511,8.13044244 7.83771129,7.4086951 C8.25264118,6.54405974 8.99525387,6.12560827 9.89827443,5.93737995 C9.98543347,5.91994814 10.0761141,5.9060379 10.1632731,5.8886061 C10.1876601,5.88508452 10.212047,5.87469586 10.2573873,5.86069759 L10.2573873,4.23610578 L11.4288401,4.23610578 L11.4288401,5.85039698 C12.4922685,5.98641792 13.4963584,6.17816782 14.2668796,6.99402933 C13.8554713,7.44725637 13.4579732,7.87961807 13.0396097,8.33636669 C12.3492925,7.68786816 11.5090441,7.66348124 10.6583189,7.72273178 C10.4351389,7.73673006 10.1946152,7.80293572 9.99591017,7.91104815 C9.47295588,8.20386733 9.46943431,8.81054713 10.0063869,9.07906742 C10.4492253,9.29872583 10.9373159,9.43465873 11.4079748,9.60202171 C12.0634284,9.83911192 12.7398354,10.0308618 13.3743357,10.3132924 C14.3435619,10.7421325 14.8038321,11.5370406 14.8456509,12.5899923 C14.9153781,14.3784255 13.5626521,15.9612867 11.7740428,16.1670348 Z" id="Shape"></path>
            </g>
        </g>
    </g>
</svg>