<?xml version="1.0" encoding="UTF-8" standalone="no"?>
<svg width="22px" height="23px" viewBox="0 0 22 23" version="1.1" xmlns="http://www.w3.org/2000/svg" xmlns:xlink="http://www.w3.org/1999/xlink">
    <!-- Generator: Sketch 47.1 (45422) - http://www.bohemiancoding.com/sketch -->
    <title>if_Bank_1054641</title>
    <desc>Created with Sketch.</desc>
    <defs></defs>
    <g id="Page-1" stroke="none" stroke-width="1" fill="none" fill-rule="evenodd">
        <g id="7_PAPERWORK_1" transform="translate(-637.000000, -44.000000)" fill-rule="nonzero" fill="#26AAE1">
            <g id="if_Bank_1054641" transform="translate(637.000000, 44.000000)">
                <path d="M21.453529,19.9480301 L20.4383581,19.9480301 L20.4383581,9.39413675 L21.453529,9.39413675 C21.4539107,9.39413675 21.4542379,9.39413675 21.4546197,9.39413675 C21.7558332,9.39413675 22,9.15461235 22,8.8591258 C22,8.68155567 21.9119211,8.52420895 21.7761759,8.42689046 L11.3431601,0.119615071 C11.1428965,-0.0398716904 10.8560264,-0.0398716904 10.6557628,0.119615071 L0.201695273,8.44374331 C0.0224287726,8.58648423 -0.0457983014,8.82445709 0.0314275473,9.03792646 C0.108653396,9.25139583 0.314425379,9.39408324 0.545393931,9.39408324 L1.5605648,9.39408324 L1.5605648,19.9479766 L0.545448469,19.9479766 C0.244234936,19.9479766 6.81807662e-05,20.187608 6.81807662e-05,20.4829875 L6.81807662e-05,22.4649891 C6.81807662e-05,22.7604221 0.244234936,23 0.545448469,23 L21.453529,23 C21.7546879,23 21.9989092,22.7604221 21.9989092,22.4649891 L21.9989092,20.4829875 C21.9989092,20.187608 21.7546879,19.9480301 21.453529,19.9480301 Z M13.3235995,19.9480301 L13.3235995,9.39413675 L15.7903,9.39413675 L15.7903,19.9480301 L13.3235995,19.9480301 Z M6.20873192,19.9480301 L6.20873192,9.39413675 L8.67543242,9.39413675 L8.67543242,19.9480301 L6.20873192,19.9480301 Z" id="Shape"></path>
            </g>
        </g>
    </g>
</svg>