<?xml version="1.0" encoding="UTF-8" standalone="no"?>
<svg width="18px" height="14px" viewBox="0 0 18 14" version="1.1" xmlns="http://www.w3.org/2000/svg" xmlns:xlink="http://www.w3.org/1999/xlink">
    <!-- Generator: Sketch 47.1 (45422) - http://www.bohemiancoding.com/sketch -->
    <title>if_icn-arrow-backward_1381357</title>
    <desc>Created with Sketch.</desc>
    <defs></defs>
    <g id="Page-1" stroke="none" stroke-width="1" fill="none" fill-rule="evenodd">
        <g id="2_VEHICLE-ASESSMENT-FORM_2" transform="translate(-26.000000, -34.000000)" fill-rule="nonzero" fill="#FFFFFF">
            <g id="if_icn-arrow-backward_1381357" transform="translate(26.000000, 34.000000)">
                <path d="M17.4705882,6.46153843 L1.80744478,6.46153843 L7.25666356,0.919170583 C7.46346503,0.708834044 7.46346503,0.368088796 7.25666356,0.157752364 C7.04986209,-0.0525840676 6.71484365,-0.0525841753 6.50804229,0.157752364 L0.155101103,6.61929086 C-0.0517003677,6.8296274 -0.0517003677,7.17037264 0.155101103,7.38070908 L6.50804229,13.8422476 C6.61144297,13.9474159 6.74689795,14 6.88235292,14 C7.0178079,14 7.15326288,13.9474159 7.25666356,13.8422476 C7.46346503,13.631911 7.46346503,13.2911658 7.25666356,13.0808293 L1.80744478,7.53846151 L17.4705882,7.53846151 C17.7632123,7.53846151 18,7.29762618 18,6.99999997 C18,6.70237375 17.7632123,6.46153843 17.4705882,6.46153843 Z" id="Shape"></path>
            </g>
        </g>
    </g>
</svg>