<?xml version="1.0" encoding="UTF-8" standalone="no"?>
<svg width="32px" height="35px" viewBox="0 0 32 35" version="1.1" xmlns="http://www.w3.org/2000/svg" xmlns:xlink="http://www.w3.org/1999/xlink">
    <!-- Generator: Sketch 47.1 (45422) - http://www.bohemiancoding.com/sketch -->
    <title>if_iconfinder-68_1953187 (1)</title>
    <desc>Created with Sketch.</desc>
    <defs></defs>
    <g id="Page-1" stroke="none" stroke-width="1" fill="none" fill-rule="evenodd">
        <g id="9_CONGRATULATIONS" transform="translate(-214.000000, -465.000000)" fill-rule="nonzero" fill="#26AAE1">
            <g id="if_iconfinder-68_1953187-(1)" transform="translate(214.000000, 465.000000)">
                <polygon id="Shape" points="24 5 28 5 24 1"></polygon>
                <path d="M31.7848534,11.8854167 L29.0936873,9.17291667 L29.0936873,5.83333333 L24.002292,5.83333333 C23.600592,5.83333333 23.2749499,5.5068743 23.2749499,5.10416667 L23.2749499,0 L0.727342183,0 C0.325642187,-2.46587305e-17 0,0.326459037 0,0.729166667 L0,34.2708333 C0,34.673541 0.325642187,35 0.727342183,35 L28.3663451,35 C28.7680451,35 29.0936873,34.673541 29.0936873,34.2708333 L29.0936873,15.61875 L31.7848534,12.9208333 C31.9225485,12.7839202 32,12.5975482 32,12.403125 C32,12.2087018 31.9225485,12.0223298 31.7848534,11.8854167 Z M6.54607965,5.83333333 L13.8195015,5.83333333 C14.2212015,5.83333333 14.5468437,6.15979237 14.5468437,6.5625 C14.5468437,6.96520763 14.2212015,7.29166667 13.8195015,7.29166667 L6.54607965,7.29166667 C6.14437965,7.29166667 5.81873746,6.96520763 5.81873746,6.5625 C5.81873746,6.15979237 6.14437965,5.83333333 6.54607965,5.83333333 Z M6.54607965,10.2083333 L21.0929233,10.2083333 C21.4946233,10.2083333 21.8202655,10.5347924 21.8202655,10.9375 C21.8202655,11.3402076 21.4946233,11.6666667 21.0929233,11.6666667 L6.54607965,11.6666667 C6.14437965,11.6666667 5.81873746,11.3402076 5.81873746,10.9375 C5.81873746,10.5347924 6.14437965,10.2083333 6.54607965,10.2083333 Z M6.54607965,14.5833333 L19.6382389,14.5833333 C20.0399389,14.5833333 20.3655811,14.9097924 20.3655811,15.3125 C20.3655811,15.7152076 20.0399389,16.0416667 19.6382389,16.0416667 L6.54607965,16.0416667 C6.14437965,16.0416667 5.81873746,15.7152076 5.81873746,15.3125 C5.81873746,14.9097924 6.14437965,14.5833333 6.54607965,14.5833333 Z M6.54607965,18.9583333 L15.2741858,18.9583333 C15.6758858,18.9583333 16.001528,19.2847924 16.001528,19.6875 C16.001528,20.0902076 15.6758858,20.4166667 15.2741858,20.4166667 L6.54607965,20.4166667 C6.14437965,20.4166667 5.81873746,20.0902076 5.81873746,19.6875 C5.81873746,19.2847924 6.14437965,18.9583333 6.54607965,18.9583333 Z M10.9101327,29.1666667 L6.54607965,29.1666667 C6.14437965,29.1666667 5.81873746,28.8402076 5.81873746,28.4375 C5.81873746,28.0347924 6.14437965,27.7083333 6.54607965,27.7083333 L10.9101327,27.7083333 C11.3118327,27.7083333 11.6374749,28.0347924 11.6374749,28.4375 C11.6374749,28.8402076 11.3118327,29.1666667 10.9101327,29.1666667 Z M10.9101327,24.7916667 L6.54607965,24.7916667 C6.14437965,24.7916667 5.81873746,24.4652076 5.81873746,24.0625 C5.81873746,23.6597924 6.14437965,23.3333333 6.54607965,23.3333333 L10.9101327,23.3333333 C11.3118327,23.3333333 11.6374749,23.6597924 11.6374749,24.0625 C11.6374749,24.4652076 11.3118327,24.7916667 10.9101327,24.7916667 Z M16.3361054,26.3375 L13.5140178,27.2854167 L14.4595626,24.45625 L14.5468437,24.36875 L16.4233865,26.25 L16.3361054,26.3375 Z M29.0936873,13.5479167 L17.4562124,25.2145833 L15.5796696,23.3333333 L28.3663451,10.5145833 L29.0936873,11.24375 L30.242888,12.3958333 L29.0936873,13.5479167 Z" id="Shape"></path>
            </g>
        </g>
    </g>
</svg>